<svg width="27" height="28" fill="none" xmlns="http://www.w3.org/2000/svg"><path d="M6.05 26.042l-.502.531 1.063 1.005.502-.53-1.062-1.006zM26.102 6.97a.731.731 0 00-1.063-1.005l1.063 1.005zM7.113 27.047l.006-.006a.354.354 0 01.006-.006l.006-.006a.347.347 0 00.006-.007l.006-.007.007-.007.007-.007.007-.008a.759.759 0 01.008-.007l.007-.009.008-.008.008-.008.009-.01a.644.644 0 00.017-.018l.009-.009.01-.01.009-.01.01-.01a.878.878 0 00.01-.01l.01-.011.01-.011.01-.011.011-.012.011-.012.011-.012.012-.012.012-.012.012-.013.012-.012.012-.013.013-.014.012-.013.013-.014.014-.014.013-.014.014-.015.014-.015.014-.014.014-.015a2.918 2.918 0 01.03-.031l.014-.016.015-.016a3.267 3.267 0 01.031-.033l.016-.017.016-.016.016-.018.017-.017.016-.017.017-.018.017-.018.017-.018.018-.019.017-.018.018-.02.018-.018.018-.02a4.71 4.71 0 01.019-.019l.018-.02a4.895 4.895 0 01.038-.04l.02-.02.019-.02.02-.021.02-.021.02-.021a6.589 6.589 0 01.04-.043l.02-.022a5.967 5.967 0 01.042-.044l.021-.022a7.353 7.353 0 01.043-.046l.021-.022a9.296 9.296 0 01.044-.047l.023-.023.022-.024.023-.024.023-.024.023-.024.023-.025.023-.025.024-.024.023-.026a11.077 11.077 0 01.048-.05l.024-.026a9.653 9.653 0 01.05-.052l.024-.026.025-.026.025-.027.026-.027.025-.027.026-.027.026-.027c.008-.01.017-.018.026-.027l.026-.028.026-.028.027-.028.026-.028.027-.029a14.161 14.161 0 01.054-.057l.028-.029.027-.029.028-.03.028-.029.028-.03.028-.029.028-.03.029-.03.028-.03.029-.03.029-.031.03-.031.028-.031.03-.031.03-.031.03-.032.03-.032.03-.031.03-.032.03-.032.03-.033.03-.032.032-.033.03-.032.032-.033.031-.033.031-.034.032-.033.032-.034.032-.033c.01-.011.02-.023.032-.034L9.9 24.1l.032-.034c.01-.012.022-.023.033-.034l.032-.035.033-.035.033-.034.033-.035.033-.035.033-.035.034-.036.033-.035.034-.036.034-.036.034-.036.034-.036.034-.036.034-.036.035-.037.035-.036.034-.037.035-.037a12.651 12.651 0 00.141-.149l.036-.038.035-.037.036-.038.036-.038.036-.038.036-.039.037-.038.036-.039.037-.038.036-.039.037-.039.037-.039.037-.04.037-.038.038-.04.037-.04.038-.04.037-.039.038-.04.038-.04.038-.04.038-.04.038-.04.038-.041.039-.04.038-.042.04-.04.038-.041.039-.042.039-.04.039-.042.039-.042.04-.041.039-.042.04-.042.039-.041.04-.042.04-.043.04-.042.04-.042.04-.043.04-.042.04-.043.04-.043.041-.042.04-.043.041-.044.041-.043.041-.043.041-.043.041-.044.042-.043.04-.044.042-.044.042-.044.041-.044.042-.044.042-.044.042-.044.042-.044.042-.045.042-.044.042-.045.042-.045.043-.044.042-.045.043-.045.042-.045.043-.046.043-.045.043-.045.042-.046a17.975 17.975 0 01.087-.09l.043-.046.043-.046.043-.046.044-.046.043-.046.044-.046.043-.046.044-.046.044-.046.044-.047.044-.046.044-.047.044-.046.044-.047.044-.047.045-.047.044-.047.044-.046.045-.047.044-.047.045-.048.044-.047.045-.047.045-.048.045-.047.045-.048.045-.047.045-.048.045-.047a19.855 19.855 0 01.09-.096l.046-.048.045-.048.045-.048.046-.048.045-.048.046-.048.045-.048.046-.049.046-.048.046-.048.046-.049.045-.048.046-.049.046-.049.046-.048.046-.049.046-.049a21.895 21.895 0 00.093-.097l.046-.05.046-.048.047-.049.046-.05.046-.048a22.168 22.168 0 00.14-.148l.046-.049.047-.05.047-.048.046-.05.047-.05.047-.049a10.644 10.644 0 01.14-.148l.047-.05.047-.05.047-.05.047-.049a395.145 395.145 0 01.141-.15l.047-.049.048-.05.047-.05.047-.05.047-.05.047-.05.048-.05.047-.05.047-.05.048-.05.047-.05.048-.05.047-.05.047-.05.048-.05.047-.05a407.521 407.521 0 00.143-.151l.047-.05.048-.05.047-.05.048-.051.047-.05.048-.05.048-.051.047-.05.048-.05.048-.051.047-.05.048-.05.048-.051.047-.05.048-.051.048-.05.047-.051.048-.05.048-.05.047-.051.048-.05.048-.051a22.166 22.166 0 01.095-.101l.048-.05.048-.05.047-.051.048-.05.048-.051.047-.05.048-.051.048-.05.047-.05.048-.051.048-.05.047-.051.048-.05.048-.05.047-.051.048-.05a11.308 11.308 0 00.143-.152l.047-.05.048-.05.047-.05.048-.05a21.944 21.944 0 00.095-.101l.047-.05.048-.05.047-.05a23.144 23.144 0 00.143-.151l.047-.05.047-.05.048-.05.047-.05.047-.05.047-.05.048-.05.047-.05.047-.05.047-.05.047-.05a606708713094.714 606708713094.714 0 00.094-.099l.047-.05.047-.05.047-.049a21.402 21.402 0 00.094-.1l.047-.049.047-.05.047-.049.046-.05.047-.049.047-.049.046-.05.047-.049.047-.049.046-.049.047-.049.046-.05c.016-.015.031-.032.046-.048l.047-.05.046-.048.046-.05.047-.048.046-.049.046-.049.046-.048.046-.05.046-.048.046-.048.046-.049.046-.048.046-.049.045-.048.046-.048.046-.049.045-.048.046-.048.045-.048.046-.048.045-.048.046-.048.045-.048a10.205 10.205 0 00.09-.095l.045-.048.045-.048.045-.047.045-.048.045-.047.045-.048a68.493 68.493 0 01.09-.094l.044-.047.044-.047.045-.047.044-.047.044-.047.045-.047.044-.047.044-.046.044-.047.044-.046.044-.047a98.684 98.684 0 01.087-.092l.044-.047.044-.046.043-.046.044-.046.043-.046.043-.045.044-.046.043-.046.043-.045.043-.046.043-.045.043-.045.043-.046a62.343 62.343 0 01.127-.135l.043-.045a61.376 61.376 0 01.084-.09l.043-.044a45.459 45.459 0 01.126-.133l.041-.044a59.616 59.616 0 01.084-.088l.041-.044.042-.044.041-.044.041-.043.042-.044.04-.043.042-.044.04-.043.041-.043.041-.043.04-.043.041-.043.04-.043.04-.042.041-.043.04-.042.04-.043a54.548 54.548 0 01.08-.084l.04-.042a40.264 40.264 0 01.118-.125l-1.063-1.005a10.24 10.24 0 00-.04.041l-.039.042-.04.042-.039.042-.04.042-.04.042-.04.042-.04.043-.04.042-.04.043-.04.043a42.16 42.16 0 00-.041.043l-.04.043-.041.043-.041.043-.041.043-.041.043-.041.044-.041.043-.042.044-.041.044-.042.044-.041.043-.042.044-.042.045-.041.044a13.291 13.291 0 00-.126.133l-.043.045a61.181 61.181 0 00-.084.09l-.043.044a13.676 13.676 0 00-.085.09l-.042.045-.043.045-.043.046-.043.045-.043.045-.043.046a95.716 95.716 0 00-.086.091l-.044.046-.043.046-.043.046-.044.046-.044.046-.043.046-.044.047-.044.046-.044.046-.044.047-.044.046a99.981 99.981 0 00-.088.094l-.044.047-.045.046-.044.047-.045.047-.044.048-.045.047-.044.047-.045.047-.045.048-.045.047-.045.047-.045.048-.045.048-.045.047-.045.048a16.697 16.697 0 00-.136.144l-.045.048-.046.048a18.377 18.377 0 00-.182.192l-.046.049-.045.048-.046.048a25.15 25.15 0 01-.092.097l-.046.049-.046.049-.046.048-.046.05-.046.048-.046.049-.046.049-.047.048-.046.05-.046.049-.047.049-.046.049-.047.049a11.12 11.12 0 00-.046.05l-.047.048-.046.05-.047.049-.047.05-.046.049-.047.05-.047.049-.047.05-.047.049a392.7 392.7 0 01-.047.05l-.047.049-.046.05a395.145 395.145 0 00-.095.099l-.047.05-.047.05-.047.05-.047.049-.047.05-.047.05-.048.05-.047.05-.047.05-.047.05-.048.05a11.17 11.17 0 00-.047.05l-.047.05-.048.05-.047.05-.047.05-.048.05-.047.05-.048.05-.047.05-.048.051-.047.05-.048.05-.047.05-.048.051-.048.05-.047.05-.048.051-.048.05-.047.05-.048.051-.047.05-.048.051-.048.05-.047.05-.048.051-.048.05-.047.051-.048.05-.048.05-.047.051-.048.05-.048.051-.048.05c-.015.018-.031.034-.047.051l-.048.05-.048.051-.047.05-.048.05-.048.051-.048.05c-.015.018-.031.034-.047.051l-.048.05-.048.051-.047.05-.048.05-.048.051-.047.05-.048.05-.047.051a22.035 22.035 0 00-.143.151l-.048.05-.047.05-.048.051-.048.05-.047.05-.048.051-.047.05-.048.05-.047.05-.047.05-.048.05-.047.051-.048.05-.047.05-.047.05-.048.05-.047.05-.047.05-.048.05-.047.05a11.124 11.124 0 00-.141.15l-.048.05-.046.05-.048.05-.047.049-.047.05-.047.05-.046.049-.047.05-.047.049-.047.05-.047.049-.047.05-.046.049-.047.05-.047.049-.046.049a10.851 10.851 0 01-.094.098l-.046.05-.046.049-.047.049-.046.049-.047.049-.046.049-.046.049-.046.048-.046.05-.047.048-.046.049-.046.048-.046.049-.046.048-.045.049-.046.048-.046.049-.046.048-.045.048-.046.049-.046.048-.045.048-.046.048-.045.048-.045.048-.045.048-.046.048-.045.047-.045.048-.045.048-.045.047a19.596 19.596 0 00-.09.095l-.045.047-.044.048-.045.047-.045.047-.044.047-.045.047-.044.047-.044.047-.045.047-.044.047-.044.046-.044.047-.044.047-.044.046-.044.046-.044.047-.043.046a18.472 18.472 0 00-.088.092l-.043.046-.043.046-.044.046-.043.046-.043.045-.043.046-.043.045c-.015.015-.03.03-.043.046l-.043.045-.043.045-.043.045-.042.045-.043.045-.042.045-.043.045-.042.045-.042.044-.042.045-.042.044-.042.045-.042.044-.042.044-.042.044-.041.044-.042.044-.041.044-.041.043-.041.044-.042.043-.04.044-.041.043-.041.043-.041.043-.04.043-.041.043-.04.043-.041.043a16.6 16.6 0 01-.04.042l-.04.043-.04.042-.04.042-.04.042-.04.042a16.13 16.13 0 01-.04.042l-.04.042a15.093 15.093 0 00-.078.083l-.039.042-.04.04a7.397 7.397 0 00-.038.042l-.039.041-.039.041-.038.041-.039.04-.038.042-.039.04-.038.04-.038.04-.038.04a265.582 265.582 0 00-.076.08l-.037.04-.038.04-.037.04-.037.04-.038.039-.037.039-.037.039-.037.039-.036.038-.037.04-.036.038-.036.038-.037.038a25.27 25.27 0 00-.036.038l-.036.039-.035.037-.036.038-.036.038-.035.037-.035.038-.036.037-.035.037a8.505 8.505 0 01-.035.037l-.034.036-.035.037-.035.037-.034.036-.034.036-.034.036-.034.036-.034.036-.034.036-.033.035-.034.035-.033.035-.033.036-.033.034-.033.035-.033.035-.032.034-.033.035-.032.034-.032.034a19.932 19.932 0 00-.096.1l-.031.034-.032.033-.031.033-.031.033-.031.033-.031.033-.03.032-.031.032-.03.032-.03.032-.03.032-.03.032a17.215 17.215 0 00-.06.063l-.03.03-.029.032-.029.03-.029.031-.029.03-.028.03-.029.03-.028.03-.028.03-.028.03-.028.03-.028.029-.027.029-.028.029-.027.029-.027.028-.027.029-.026.028-.027.028-.026.028-.026.027-.026.028-.026.027-.026.027-.025.027-.026.027-.025.026a8.645 8.645 0 00-.025.027l-.024.026-.025.026a11.59 11.59 0 00-.024.026l-.025.026-.024.025-.024.025-.023.025a4.173 4.173 0 01-.024.025l-.023.025-.023.024a8.553 8.553 0 00-.023.025l-.023.024-.023.024a3.78 3.78 0 01-.022.023l-.022.024-.023.023-.021.023-.022.023-.022.023-.02.023-.022.022-.021.022a3.227 3.227 0 01-.02.022l-.021.022-.02.021a3.053 3.053 0 01-.02.022l-.02.02-.02.022a6.213 6.213 0 00-.02.02l-.02.02-.019.021a5.848 5.848 0 00-.019.02l-.019.02-.018.02-.019.02-.018.018-.018.02a4.413 4.413 0 00-.035.037l-.018.018-.017.019-.017.018-.017.017-.016.018-.017.017-.016.017-.016.017-.016.017-.015.016-.015.017-.016.016-.015.015-.014.016-.015.015-.014.015-.014.015a2.342 2.342 0 00-.028.03l-.013.014-.013.014a2.357 2.357 0 00-.026.027l-.013.013-.012.013-.012.013a1.158 1.158 0 01-.012.013l-.012.012-.011.012-.012.012-.01.012-.012.011-.01.012-.01.01-.01.011a1.198 1.198 0 00-.01.01l-.01.01-.01.01-.009.01-.009.01a.689.689 0 01-.009.01l-.008.009-.009.008-.008.009-.008.008-.007.008-.008.008-.007.008-.007.007-.006.007-.007.007a.54.54 0 00-.012.013l-.006.006-.005.006 1.062 1.005z" fill="#fff"/><path d="M14.996 5.132h-.731v1.463h.732V5.132zm11.152 1.461a.731.731 0 000-1.462v1.462zm-11.151.002l11.15-.002V5.131h-11.15v1.464z" fill="#fff"/></svg>