<svg width="145" height="145" fill="none" xmlns="http://www.w3.org/2000/svg"><circle cx="72.5" cy="72.5" r="72" stroke="#fff"/><circle cx="72.5" cy="20.5" r="4.5" fill="#fff"/><path d="M39.145 77v-9.454h3.194c.742 0 1.349.133 1.82.401.473.265.824.623 1.052 1.076.228.452.342.957.342 1.514s-.114 1.063-.342 1.519a2.539 2.539 0 01-1.043 1.09c-.471.267-1.075.4-1.81.4h-2.29v-1.015h2.253c.508 0 .916-.088 1.223-.263a1.57 1.57 0 00.67-.71c.141-.302.212-.643.212-1.021 0-.379-.07-.717-.212-1.016a1.516 1.516 0 00-.674-.701c-.311-.173-.724-.259-1.237-.259H40.29V77h-1.145zm8.455 0h-1.2l3.471-9.454h1.182L54.525 77h-1.2l-2.826-7.959h-.074L47.6 77zm.443-3.693h4.838v1.015h-4.838v-1.015zM62.796 70.5a3.341 3.341 0 00-.402-.836 2.583 2.583 0 00-.586-.637 2.462 2.462 0 00-.766-.401 3.054 3.054 0 00-.942-.139c-.56 0-1.07.145-1.528.434-.459.29-.824.716-1.094 1.279-.271.563-.407 1.254-.407 2.073 0 .818.137 1.51.411 2.073.274.563.645.989 1.113 1.278.468.29.994.434 1.579.434.541 0 1.018-.115 1.43-.346.416-.234.74-.563.97-.988.234-.428.351-.93.351-1.51l.351.074h-2.844v-1.015h3.601v1.015c0 .779-.166 1.456-.498 2.032a3.444 3.444 0 01-1.367 1.338c-.579.314-1.243.471-1.994.471-.837 0-1.573-.197-2.207-.59-.63-.395-1.123-.955-1.477-1.681-.351-.726-.526-1.588-.526-2.585 0-.748.1-1.42.3-2.018.203-.6.489-1.11.858-1.532.37-.422.807-.745 1.311-.97a4.052 4.052 0 011.667-.337c.498 0 .963.076 1.394.226a3.74 3.74 0 012.013 1.607c.228.375.385.792.47 1.251h-1.181zm3.978 6.5v-9.454h5.706v1.015h-4.561v3.195h4.266v1.015h-4.266v3.213h4.635V77h-5.78zm12.469-8.439v-1.016h7.09v1.016h-2.972V77h-1.145v-8.439h-2.973zm17.221 3.712c0 .997-.18 1.859-.54 2.585-.36.726-.854 1.286-1.482 1.68-.628.394-1.345.591-2.151.591-.806 0-1.523-.197-2.151-.59-.628-.395-1.122-.955-1.482-1.681-.36-.726-.54-1.588-.54-2.585 0-.997.18-1.86.54-2.585.36-.727.854-1.287 1.482-1.68.627-.395 1.345-.592 2.151-.592.806 0 1.523.197 2.151.591.628.394 1.122.954 1.482 1.68.36.727.54 1.589.54 2.586zm-1.108 0c0-.819-.137-1.51-.41-2.073-.271-.563-.64-.99-1.104-1.279a2.86 2.86 0 00-1.551-.434 2.89 2.89 0 00-1.556.434c-.461.29-.83.716-1.103 1.279-.271.563-.406 1.254-.406 2.073 0 .818.135 1.51.406 2.073.274.563.642.989 1.103 1.278.465.29.984.434 1.556.434a2.86 2.86 0 001.551-.434c.465-.289.833-.715 1.103-1.278.274-.564.411-1.255.411-2.073zM99.17 77v-9.454h3.195c.742 0 1.348.133 1.819.401.474.265.825.623 1.052 1.076.228.452.342.957.342 1.514s-.114 1.063-.342 1.519a2.534 2.534 0 01-1.043 1.09c-.471.267-1.074.4-1.81.4h-2.289v-1.015h2.252c.508 0 .916-.088 1.224-.263.308-.175.531-.412.669-.71.142-.302.213-.643.213-1.021 0-.379-.071-.717-.213-1.016a1.512 1.512 0 00-.674-.701c-.311-.173-.723-.259-1.237-.259h-2.013V77H99.17z" fill="#fff"/></svg>