<svg id="_レイヤー_2" data-name="レイヤー_2" xmlns="http://www.w3.org/2000/svg" viewBox="0 0 2046.75 1477.24"><defs><style>.cls-1{fill:#fff}</style></defs><g id="_白" data-name="白"><path class="cls-1" d="M890.52 1028.66H695.03s13.04 7.75 27.32 25.57c.93 1.16 1.79 2.44 2.6 3.8 0 0-1.59 366.68-1.59 385.82 0 10.73-4.64 15.75-10 22.01-5.37 6.26-15.86 11.09-15.86 11.09h191.02s-13.52-9-18.91-16.81c-3.42-4.96-6.68-10.98-8.54-16.56v-390.67c10.65-16.16 29.44-24.24 29.44-24.24z"/><path class="cls-1" d="M1478.94 1460.13c-3.42-4.96-6.68-10.98-8.54-16.56v-397.86c10.55-11.36 23.76-17.05 23.76-17.05h-195.49s13.04 7.75 27.32 25.57c3.65 4.56 6.32 10.8 8.28 17.52 0 0-1.59 346.38-1.59 365.51 0 11.11-3.56 19.8-10.35 26.8-5.51 5.67-9.55 8.74-29.73 9.45-11.88-1.29-21.37-6.21-26.4-11.51-3.83-4.03-10.5-14.57-10.5-23.43v-295.12h27.68v-119.08h-27.68V899.24c.08-5.51 3.24-27.93 17.2-27.93 15.91 0 19.91 24.67 19.91 24.67v61.86l129.51-60.61v-84.39c0-10.19-10.85-32.01-24.08-43.81-13.23-11.8-50.71-16.03-72.17-16.03-.75 0-1233 4.23-1233 4.23-23.36 0-43.39 10.49-62.46 29.56S3.55 835.42 3.55 857v551.13c0 23.48 11.57 68.8 60.31 68.8h241.31s26.06-11.95 41.09-11.95 31.47 11.95 31.47 11.95v-378.96c0-69.32 44.17-69.32 44.17-69.32H168.08s18.01.81 35.2 22.62c5.84 7.4 13.26 20.93 13.26 38.58l.28 223.28c0 35.58-15.35 48.12-31.44 48.12-32.37 0-31.82-45.73-31.82-63.25V912.23c0-14.01 4.99-38.42 31.04-38.42l13.9-.15h6.55v-.03l698.02-2.48v605.78h161.6s-9.91-9-13.86-16.81c-2.51-4.96-4.9-15.98-6.26-21.56v-295.12h27.61v-119.08h-27.61V900.27s0-17.52 5.19-23.78c4.54-5.48 15.37-5.92 18.01-5.94h.59l46.98-.14v606.52h382.51s-13.52-9-18.91-16.81zm567.81 16.81s-13.52-9-18.91-16.81c-3.42-4.96-6.68-10.98-8.54-16.56v-395.24c0-5.19-5.53-11.09-14.47-16.69-8.07-5.06-18.22-7.27-38.87-7.27h-33.12V469.31h-13v555.06h-13.74c-18.87 0-22.65 1.91-30.41 5.72-7.62 3.74-21.24 21.81-26.19 21.81-3.82 0-3.98-.83-4.39-3.11V746.86l-38.34 18.54V519.17h-13v252.52l-104.82 50.69s-2.41 2.26-1.46 4.17c2.91 5.86 5.24 1.67 11.34 7.75 2.46 2.45 5 6.63 7.16 10.75l-.16 631.88h164.34s-13.52-9-18.91-16.81a76.72 76.72 0 01-6.14-10.63v-307.8c.47-8.34 3.53-23.99 20-23.99 13 0 16.99 11.44 18.05 21.06v338.17h163.58zm-386.99-622.08v-22.53L1629.72 846V607.14h-13v244.77l-114.12 51.93s-2.41 2.26-1.46 4.17c2.91 5.86 7.24 1.67 13.34 7.75 2.46 2.45 7.16 7.58 7.16 10.75v498.01c0 10.73-1.46 11.99 6.83 28.44 3.5 6.93 20.13 23.96 27.79 23.96h129.75s-13.52-9-18.91-16.81c-2.77-4.02-5.44-8.74-7.34-13.35v-303.33h29.28v-119.08h-29.28V854.84z"/><path class="cls-1" d="M624.26 1025.49c-43.26 0-69.11 24.02-69.11 47.07v-67.5l-158.82 71.52s-1.38.72-.73 1.37c2 2.01 10.08 3.04 16.18 9.12 3.33 3.32 5.67 9.24 7.24 14.67v344.94c-1.46 7.82-5.17 14.62-9.34 19.48-5.37 6.26-15.86 11.09-15.86 11.09h191.02s-13.52-9-18.91-16.81c-5.25-7.6-10.79-13.82-10.79-20.97V1176.5c0-23.04 19.68-47.07 62.94-47.07 31.44 0 56.92 18.68 65 41.72v-103.93c-8.08-23.04-27.39-41.72-58.83-41.72zm-7.55-308.31c29.12.46 95.36.46 124.48 0 29.12-.46 57.81-28.3 57.81-82.09v-98.36c0-10.09.37-14.19-3.36-14.19s-3.74.86-4.11 13.94-4.32 27.81-10.83 44.34c-7.89 20.02-28.68 38.85-61.26 38.85-11.78 0-50.04 2.19-50.04-31.3s38.59-48.38 56.28-59.61c21.92-13.91 73.33-35.76 73.33-88.57l-.01-84.98c0-53.79-28.68-81.62-57.81-82.09-29.12-.46-95.36-.46-124.48 0-29.12.46-57.81 28.3-57.81 82.09v279.9c0 53.79 28.68 81.62 57.81 82.09zm48.1-326.13c0-18.3 3.46-23.16 17.28-23.16 8.22 0 11.21 13.45 11.21 38.47s-17 49.31-28.48 49.31v-64.62z"/><path class="cls-1" d="M18.68 244.25C25.5 231.18 34 216.79 47.07 208.2c8.66-5.69 26.74-14.28 32.5-15.5 25.59-5.42 26.33 0 26.33 0v381.38s-7.84 84.89-17.93 100.02-45.1 33.06-52.95 33.62c-7.84.56-11.77 2.8-12.05 5.04-.28 2.24-2.24 4.76 9.25 4.76h387.17c4.2 0 5.04-2.24 4.2-5.6s-6.44-7.28-9.25-11.49c-2.8-4.2-4.2-8.4-4.2-19.05V381.05c0-18.49 7.28-17.65 11.49-17.65s9.53 2.52 9.53 11.49v330.86c0 8.4 5.32 11.77 11.49 11.77h118.23c13.45 0 18.21 0 18.21-5.04s-14.29-5.04-22.69-13.45C535.39 678.02 538.75 636 538.75 636V326.06c0-43.52-31.66-57.34-49.59-57.34h-47.07c-9.82 0-22.48 6.88-31.94 13.12V103.06s1.12-11.77-2.61-15.69c-3.74-3.92-15.32-3.55-15.32-3.55H0v186.96c0 4.86 1.12 3.74 3.74 3.74s10.16-21.1 14.94-30.26zm209.93-49.07c2.38-1.49 5.74-2.47 10.46-2.47h21.67c5.6 0 23.16 11.21 31.38 23.53s10.46 18.68 10.46 45.57v385.78c-.47 4.01-1.03 8.45-1.68 13.35-6.16 46.23-23.53 49.59-38.38 46.79-14.85-2.8-19.05-3.92-26.33-18.21-7.28-14.29-7.56-36.42-7.56-36.42V195.18zm789.7 199.61h13v346.27h-13zm196.11 269.51h13v76.76h-13zm247.09-73.96h13v438.16h-13zm332.27-402.86h13v194.99h-13z"/><path class="cls-1" d="M998.24 377.37l168.7 25.64c2.61 8.96 6.35 22.41 16.06 34.22s33.99 19.95 39.97 24.06 25.4 13.45 43.7 22.41c3.51 1.72 7.06 3.29 10.52 4.71l-144.05 128.45c-4.73 4.06-3.61 8.41 2.5 9.67l100.49 20.65c6.11 1.26 14.95-1.07 19.65-5.18l143.1-124.98c7.86 13.4 53.02 48.79 62.4 55.96 9.53 7.28 32.5 22.97 42.02 21.29 6.99-1.23 31.17-11.51 43.55-16.9-.04.54-.06 1.07-.03 1.59.37 6.35 4.48 6.35 9.71 16.06 5.23 9.71 5.98 8.22 12.33 12.7s8.96 5.23 15.69 4.11c6.72-1.12 65.74-42.58 88.53-56.4s70.23-50.43 83.3-61.26c.54-.44 1.04-.89 1.53-1.34L1877.46 511c6.17.94 13.81-2.69 16.99-8.05l46.29-78.2c3.18-5.37.72-10.44-5.46-11.27l-169.67-27.14c-8.7-56.25-28.32-148.29-28.32-148.29-1.49-6.06.1-8.8 4.52-13.19l75.46-72.09c.84-.84 1.48-1.79 1.91-2.8l.76-.67c4.7-4.1 3.73-9.17-2.14-11.27l-78.74-28.07c-4.92-1.75-11.79-.9-16.68 1.8-1.87.37-3.65 1.2-5.33 2.72l-22.69 20.58c-.78.71-1.53 1.46-2.25 2.2l-5.09 4.37c-1.34.53-2.55.1-3.68-2.05 0 0-14.7-9.66-18.5-50.69-3.9-42.22-.75-71.94-.75-71.94.7-6.2-3.8-11.79-10-12.43l-28.52.24c-6.2-.64-11.42 3.93-11.59 10.17 0 0-1.45 71.44 8.64 110.94s57.43 67.24 71.72 105.06c14.29 37.82 37.82 82.37 36.98 139.52-.05 3.48-.18 6.93-.37 10.36L1582.09 357c-13.04 6.02-40.16 5.32-46.88 28.3-8.88 30.35-1.98 59.91 4.48 71.72.62 1.14 1.08 2.09 1.43 2.89l69.33 10.54c-16.92 17.32-43.21 44.38-53.07 55.28-5.88 6.36-14.33 11.98-31.14 22.64-16.81 10.65-26.46 11.79-35.86 9.52-8.58-2.07-32.78-24.92-53.71-46.02-5.98-9.86-11.55-20.14-12.97-26.26-3.36-14.57 17.37-109.82 20.17-123.83s6.72-20.17-.56-22.97c-7.28-2.8-10.09-3.92-11.77 0-1.68 3.92-12.89 20.17-17.37 26.89-.15.23-.35.6-.6 1.09l-114.03 101.69c-.41-.11-.86-.19-1.36-.24-5.6-.56-6.16 2.99-8.4-6.91s-2.24-14.68 3.92-24.06c6.16-9.38 56.59-90.66 65.56-101 8.96-10.35 10.09-19.87 9.53-22.68-.56-2.8-7.28-6.72-13.45-3.36-6.16 3.36-59.95 60.51-70.6 79-10.65 18.49-15.69 26.89-18.49 34.18-2.8 7.28-5.04 16.81-8.4 18.49-3.36 1.68-6.72-14.57-6.72-21.29s16.25-61.63 20.17-75.08c3.92-13.45 15.69-39.22 15.13-44.82s2.8-10.09-6.16-12.33-15.13 8.96-17.37 14.57c-2.24 5.6-42.58 125.51-42.58 125.51l-20.73-15.13s14.01-119.35 22.97-131.67c8.96-12.33 115.98-119.35 129.99-130.55 14.01-11.21 38.1-42.58 38.66-52.67.56-10.09-11.21-93.9-11.21-93.9h-1.68c-1.12-4.53-1.49-3.41-8.59-4.16s-13.45 0-18.68 0-5.23-1.4-3.74 4.16c1.49 5.56-1.49 8.17 1.12 18.63 2.61 10.46 9.71 23.53 7.84 42.58-1.87 19.05-7.84 54.54-58.65 103.1-37.31 35.67-85.91 64.62-93.76 74.71-7.84 10.09-16.44 14.94-26.15 34.74-5.51 11.22-5.49 23.88-4.44 32.75l-103.11-13.86c-6.18-.83-14.65 2.28-18.82 6.92l-56.8 63.19c-4.17 4.64-2.54 9.2 3.63 10.14zm590.8 150.77c10.98-17.63 30.9-42.85 41.09-54.75l79.06 12.01c-5.82 12.1-17.14 30.57-36.1 42.74-6.82 4.38-12.78 8.59-18.08 12.55-6.54-5.41-17.36-12.56-30.86-14.79-12.5-2.07-30.33 7.64-40.03 13.75 1.09-4.02 2.69-7.92 4.92-11.51zm24.91 20.92c8.7 1.4 14.45 5.84 18.09 10.17-5.68 4.7-10.41 8.4-14.98 10.75-12.33 6.35-26.15 15.69-28.39 16.06-1.35.23-6.09-12.59-6.53-27.79 5.37-7.52 16.03-11.73 31.82-9.19z"/></g></svg>