<svg width="20" height="10" viewBox="0 0 20 10" fill="none" xmlns="http://www.w3.org/2000/svg">
<path d="M1.5 7.25H0.5V9.25H1.5V7.25ZM18 9.25C18.5523 9.25 19 8.80228 19 8.25C19 7.69772 18.5523 7.25 18 7.25V9.25ZM1.5 9.25C1.50156 9.25 1.50316 9.25 1.50479 9.25C1.50642 9.25 1.50809 9.25 1.50979 9.25C1.51149 9.25 1.51322 9.25 1.51499 9.25C1.51676 9.25 1.51857 9.25 1.5204 9.25C1.52224 9.25 1.52411 9.25 1.52602 9.25C1.52793 9.25 1.52987 9.25 1.53184 9.25C1.53381 9.25 1.53582 9.25 1.53786 9.25C1.53991 9.25 1.54198 9.25 1.54409 9.25C1.5462 9.25 1.54834 9.25 1.55052 9.25C1.5527 9.25 1.55491 9.25 1.55715 9.25C1.5594 9.25 1.56168 9.25 1.56399 9.25C1.5663 9.25 1.56864 9.25 1.57102 9.25C1.5734 9.25 1.57581 9.25 1.57826 9.25C1.5807 9.25 1.58318 9.25 1.58569 9.25C1.58821 9.25 1.59075 9.25 1.59333 9.25C1.59591 9.25 1.59852 9.25 1.60116 9.25C1.60381 9.25 1.60648 9.25 1.60919 9.25C1.6119 9.25 1.61465 9.25 1.61742 9.25C1.6202 9.25 1.62301 9.25 1.62585 9.25C1.62869 9.25 1.63157 9.25 1.63447 9.25C1.63738 9.25 1.64032 9.25 1.64329 9.25C1.64626 9.25 1.64927 9.25 1.65231 9.25C1.65534 9.25 1.65841 9.25 1.66151 9.25C1.66462 9.25 1.66775 9.25 1.67092 9.25C1.67408 9.25 1.67728 9.25 1.68051 9.25C1.68374 9.25 1.68701 9.25 1.6903 9.25C1.6936 9.25 1.69692 9.25 1.70028 9.25C1.70364 9.25 1.70703 9.25 1.71046 9.25C1.71388 9.25 1.71733 9.25 1.72082 9.25C1.72431 9.25 1.72782 9.25 1.73137 9.25C1.73492 9.25 1.7385 9.25 1.74212 9.25C1.74573 9.25 1.74938 9.25 1.75305 9.25C1.75673 9.25 1.76044 9.25 1.76417 9.25C1.76791 9.25 1.77168 9.25 1.77549 9.25C1.77929 9.25 1.78312 9.25 1.78698 9.25C1.79085 9.25 1.79474 9.25 1.79867 9.25C1.8026 9.25 1.80655 9.25 1.81054 9.25C1.81453 9.25 1.81855 9.25 1.8226 9.25C1.82665 9.25 1.83073 9.25 1.83484 9.25C1.83895 9.25 1.8431 9.25 1.84727 9.25C1.85144 9.25 1.85565 9.25 1.85988 9.25C1.86412 9.25 1.86838 9.25 1.87268 9.25C1.87697 9.25 1.8813 9.25 1.88565 9.25C1.89001 9.25 1.8944 9.25 1.89881 9.25C1.90323 9.25 1.90768 9.25 1.91216 9.25C1.91663 9.25 1.92114 9.25 1.92568 9.25C1.93022 9.25 1.93479 9.25 1.93938 9.25C1.94398 9.25 1.94861 9.25 1.95327 9.25C1.95793 9.25 1.96261 9.25 1.96733 9.25C1.97205 9.25 1.9768 9.25 1.98157 9.25C1.98635 9.25 1.99116 9.25 1.99599 9.25C2.00083 9.25 2.0057 9.25 2.01059 9.25C2.01549 9.25 2.02041 9.25 2.02537 9.25C2.03032 9.25 2.03531 9.25 2.04032 9.25C2.04533 9.25 2.05038 9.25 2.05545 9.25C2.06052 9.25 2.06562 9.25 2.07075 9.25C2.07588 9.25 2.08104 9.25 2.08623 9.25C2.09142 9.25 2.09663 9.25 2.10188 9.25C2.10713 9.25 2.1124 9.25 2.1177 9.25C2.12301 9.25 2.12834 9.25 2.1337 9.25C2.13906 9.25 2.14445 9.25 2.14987 9.25C2.15529 9.25 2.16074 9.25 2.16622 9.25C2.17169 9.25 2.1772 9.25 2.18273 9.25C2.18826 9.25 2.19382 9.25 2.19941 9.25C2.205 9.25 2.21062 9.25 2.21627 9.25C2.22191 9.25 2.22759 9.25 2.23329 9.25C2.23899 9.25 2.24473 9.25 2.25048 9.25C2.25624 9.25 2.26203 9.25 2.26785 9.25C2.27366 9.25 2.2795 9.25 2.28537 9.25C2.29125 9.25 2.29714 9.25 2.30307 9.25C2.309 9.25 2.31495 9.25 2.32093 9.25C2.32691 9.25 2.33292 9.25 2.33896 9.25C2.345 9.25 2.35106 9.25 2.35715 9.25C2.36325 9.25 2.36937 9.25 2.37551 9.25C2.38166 9.25 2.38783 9.25 2.39404 9.25C2.40024 9.25 2.40647 9.25 2.41272 9.25C2.41898 9.25 2.42526 9.25 2.43157 9.25C2.43788 9.25 2.44422 9.25 2.45058 9.25C2.45695 9.25 2.46334 9.25 2.46976 9.25C2.47617 9.25 2.48262 9.25 2.48909 9.25C2.49556 9.25 2.50206 9.25 2.50859 9.25C2.51511 9.25 2.52166 9.25 2.52824 9.25C2.53482 9.25 2.54142 9.25 2.54806 9.25C2.55469 9.25 2.56135 9.25 2.56803 9.25C2.57471 9.25 2.58142 9.25 2.58816 9.25C2.5949 9.25 2.60166 9.25 2.60845 9.25C2.61524 9.25 2.62206 9.25 2.6289 9.25C2.63574 9.25 2.64261 9.25 2.6495 9.25C2.6564 9.25 2.66332 9.25 2.67026 9.25C2.67721 9.25 2.68418 9.25 2.69118 9.25C2.69817 9.25 2.7052 9.25 2.71225 9.25C2.7193 9.25 2.72637 9.25 2.73347 9.25C2.74057 9.25 2.7477 9.25 2.75485 9.25C2.762 9.25 2.76918 9.25 2.77638 9.25C2.78358 9.25 2.79081 9.25 2.79806 9.25C2.80532 9.25 2.81259 9.25 2.8199 9.25C2.8272 9.25 2.83453 9.25 2.84188 9.25C2.84924 9.25 2.85662 9.25 2.86402 9.25C2.87143 9.25 2.87885 9.25 2.88631 9.25C2.89376 9.25 2.90124 9.25 2.90875 9.25C2.91625 9.25 2.92378 9.25 2.93133 9.25C2.93888 9.25 2.94646 9.25 2.95406 9.25C2.96167 9.25 2.9693 9.25 2.97695 9.25C2.9846 9.25 2.99228 9.25 2.99998 9.25C3.00768 9.25 3.0154 9.25 3.02315 9.25C3.0309 9.25 3.03868 9.25 3.04647 9.25C3.05427 9.25 3.06209 9.25 3.06994 9.25C3.07779 9.25 3.08566 9.25 3.09355 9.25C3.10145 9.25 3.10937 9.25 3.11731 9.25C3.12525 9.25 3.13322 9.25 3.14121 9.25C3.1492 9.25 3.15721 9.25 3.16525 9.25C3.17329 9.25 3.18135 9.25 3.18944 9.25C3.19752 9.25 3.20563 9.25 3.21377 9.25C3.2219 9.25 3.23005 9.25 3.23823 9.25C3.24641 9.25 3.25462 9.25 3.26284 9.25C3.27107 9.25 3.27932 9.25 3.28759 9.25C3.29587 9.25 3.30416 9.25 3.31248 9.25C3.3208 9.25 3.32915 9.25 3.33751 9.25C3.34588 9.25 3.35427 9.25 3.36268 9.25C3.37109 9.25 3.37953 9.25 3.38798 9.25C3.39644 9.25 3.40492 9.25 3.41343 9.25C3.42193 9.25 3.43045 9.25 3.439 9.25C3.44755 9.25 3.45612 9.25 3.46472 9.25C3.47331 9.25 3.48193 9.25 3.49057 9.25C3.49921 9.25 3.50787 9.25 3.51655 9.25C3.52524 9.25 3.53394 9.25 3.54267 9.25C3.5514 9.25 3.56015 9.25 3.56893 9.25C3.5777 9.25 3.58649 9.25 3.59531 9.25C3.60413 9.25 3.61297 9.25 3.62183 9.25C3.63069 9.25 3.63958 9.25 3.64848 9.25C3.65739 9.25 3.66632 9.25 3.67526 9.25C3.68421 9.25 3.69318 9.25 3.70218 9.25C3.71117 9.25 3.72018 9.25 3.72922 9.25C3.73826 9.25 3.74731 9.25 3.75639 9.25C3.76547 9.25 3.77457 9.25 3.7837 9.25C3.79282 9.25 3.80196 9.25 3.81113 9.25C3.82029 9.25 3.82948 9.25 3.83868 9.25C3.84789 9.25 3.85712 9.25 3.86637 9.25C3.87562 9.25 3.88489 9.25 3.89418 9.25C3.90347 9.25 3.91279 9.25 3.92212 9.25C3.93145 9.25 3.94081 9.25 3.95018 9.25C3.95956 9.25 3.96896 9.25 3.97837 9.25C3.98779 9.25 3.99723 9.25 4.00669 9.25C4.01614 9.25 4.02562 9.25 4.03512 9.25C4.04462 9.25 4.05414 9.25 4.06368 9.25C4.07322 9.25 4.08278 9.25 4.09237 9.25C4.10195 9.25 4.11155 9.25 4.12117 9.25C4.13079 9.25 4.14043 9.25 4.1501 9.25C4.15976 9.25 4.16944 9.25 4.17914 9.25C4.18885 9.25 4.19857 9.25 4.20831 9.25C4.21805 9.25 4.22782 9.25 4.2376 9.25C4.24738 9.25 4.25718 9.25 4.267 9.25C4.27683 9.25 4.28667 9.25 4.29653 9.25C4.30639 9.25 4.31627 9.25 4.32617 9.25C4.33607 9.25 4.34599 9.25 4.35593 9.25C4.36587 9.25 4.37583 9.25 4.38581 9.25C4.39579 9.25 4.40578 9.25 4.4158 9.25C4.42582 9.25 4.43585 9.25 4.44591 9.25C4.45596 9.25 4.46604 9.25 4.47613 9.25C4.48623 9.25 4.49634 9.25 4.50647 9.25C4.5166 9.25 4.52675 9.25 4.53692 9.25C4.54709 9.25 4.55728 9.25 4.56749 9.25C4.57769 9.25 4.58792 9.25 4.59816 9.25C4.60841 9.25 4.61867 9.25 4.62895 9.25C4.63923 9.25 4.64954 9.25 4.65985 9.25C4.67017 9.25 4.68051 9.25 4.69087 9.25C4.70122 9.25 4.7116 9.25 4.72199 9.25C4.73238 9.25 4.74279 9.25 4.75322 9.25C4.76365 9.25 4.7741 9.25 4.78456 9.25C4.79503 9.25 4.80551 9.25 4.81601 9.25C4.82651 9.25 4.83703 9.25 4.84757 9.25C4.85811 9.25 4.86866 9.25 4.87923 9.25C4.88981 9.25 4.9004 9.25 4.911 9.25C4.92161 9.25 4.93224 9.25 4.94288 9.25C4.95353 9.25 4.96419 9.25 4.97487 9.25C4.98555 9.25 4.99624 9.25 5.00695 9.25C5.01767 9.25 5.0284 9.25 5.03915 9.25C5.0499 9.25 5.06066 9.25 5.07144 9.25C5.08223 9.25 5.09303 9.25 5.10385 9.25C5.11466 9.25 5.1255 9.25 5.13635 9.25C5.1472 9.25 5.15807 9.25 5.16895 9.25C5.17984 9.25 5.19074 9.25 5.20166 9.25C5.21258 9.25 5.22351 9.25 5.23447 9.25C5.24542 9.25 5.25639 9.25 5.26737 9.25C5.27836 9.25 5.28936 9.25 5.30038 9.25C5.3114 9.25 5.32244 9.25 5.33349 9.25C5.34454 9.25 5.35561 9.25 5.36669 9.25C5.37778 9.25 5.38888 9.25 5.4 9.25C5.41112 9.25 5.42225 9.25 5.4334 9.25C5.44455 9.25 5.45571 9.25 5.4669 9.25C5.47808 9.25 5.48928 9.25 5.50049 9.25C5.5117 9.25 5.52293 9.25 5.53418 9.25C5.54543 9.25 5.55669 9.25 5.56796 9.25C5.57924 9.25 5.59053 9.25 5.60184 9.25C5.61315 9.25 5.62448 9.25 5.63582 9.25C5.64716 9.25 5.65851 9.25 5.66988 9.25C5.68125 9.25 5.69264 9.25 5.70404 9.25C5.71544 9.25 5.72686 9.25 5.73829 9.25C5.74973 9.25 5.76117 9.25 5.77264 9.25C5.7841 9.25 5.79558 9.25 5.80707 9.25C5.81856 9.25 5.83007 9.25 5.84159 9.25C5.85312 9.25 5.86466 9.25 5.87621 9.25C5.88776 9.25 5.89933 9.25 5.91091 9.25C5.92249 9.25 5.93409 9.25 5.9457 9.25C5.95731 9.25 5.96894 9.25 5.98058 9.25C5.99222 9.25 6.00388 9.25 6.01555 9.25C6.02722 9.25 6.03891 9.25 6.0506 9.25C6.0623 9.25 6.07402 9.25 6.08575 9.25C6.09747 9.25 6.10922 9.25 6.12097 9.25C6.13273 9.25 6.1445 9.25 6.15628 9.25C6.16807 9.25 6.17987 9.25 6.19168 9.25C6.20349 9.25 6.21532 9.25 6.22716 9.25C6.239 9.25 6.25085 9.25 6.26272 9.25C6.27459 9.25 6.28647 9.25 6.29837 9.25C6.31026 9.25 6.32217 9.25 6.3341 9.25C6.34602 9.25 6.35796 9.25 6.36991 9.25C6.38186 9.25 6.39382 9.25 6.4058 9.25C6.41777 9.25 6.42976 9.25 6.44177 9.25C6.45377 9.25 6.46579 9.25 6.47782 9.25C6.48985 9.25 6.50189 9.25 6.51395 9.25C6.52601 9.25 6.53808 9.25 6.55016 9.25C6.56224 9.25 6.57434 9.25 6.58645 9.25C6.59856 9.25 6.61068 9.25 6.62281 9.25C6.63495 9.25 6.64709 9.25 6.65925 9.25C6.67141 9.25 6.68359 9.25 6.69577 9.25C6.70796 9.25 6.72015 9.25 6.73236 9.25C6.74458 9.25 6.7568 9.25 6.76903 9.25C6.78127 9.25 6.79352 9.25 6.80578 9.25C6.81804 9.25 6.83031 9.25 6.84259 9.25C6.85488 9.25 6.86718 9.25 6.87949 9.25C6.89179 9.25 6.90412 9.25 6.91645 9.25C6.92878 9.25 6.94113 9.25 6.95349 9.25C6.96584 9.25 6.97821 9.25 6.99059 9.25C7.00297 9.25 7.01537 9.25 7.02777 9.25C7.04018 9.25 7.05259 9.25 7.06502 9.25C7.07745 9.25 7.08989 9.25 7.10234 9.25C7.11479 9.25 7.12725 9.25 7.13973 9.25C7.1522 9.25 7.16469 9.25 7.17719 9.25C7.18968 9.25 7.20219 9.25 7.21471 9.25C7.22723 9.25 7.23976 9.25 7.2523 9.25C7.26485 9.25 7.2774 9.25 7.28996 9.25C7.30253 9.25 7.3151 9.25 7.32769 9.25C7.34028 9.25 7.35287 9.25 7.36548 9.25C7.37809 9.25 7.39071 9.25 7.40334 9.25C7.41597 9.25 7.42861 9.25 7.44126 9.25C7.45391 9.25 7.46657 9.25 7.47925 9.25C7.49192 9.25 7.5046 9.25 7.5173 9.25C7.52999 9.25 7.54269 9.25 7.55541 9.25C7.56812 9.25 7.58085 9.25 7.59358 9.25C7.60632 9.25 7.61906 9.25 7.63182 9.25C7.64458 9.25 7.65734 9.25 7.67012 9.25C7.68289 9.25 7.69568 9.25 7.70847 9.25C7.72127 9.25 7.73408 9.25 7.74689 9.25C7.75971 9.25 7.77253 9.25 7.78537 9.25C7.79821 9.25 7.81105 9.25 7.82391 9.25C7.83676 9.25 7.84963 9.25 7.8625 9.25C7.87537 9.25 7.88826 9.25 7.90115 9.25C7.91405 9.25 7.92695 9.25 7.93986 9.25C7.95277 9.25 7.96569 9.25 7.97863 9.25C7.99156 9.25 8.0045 9.25 8.01745 9.25C8.0304 9.25 8.04335 9.25 8.05632 9.25C8.06929 9.25 8.08227 9.25 8.09525 9.25C8.10824 9.25 8.12123 9.25 8.13424 9.25C8.14724 9.25 8.16026 9.25 8.17328 9.25C8.1863 9.25 8.19933 9.25 8.21237 9.25C8.22541 9.25 8.23846 9.25 8.25151 9.25C8.26457 9.25 8.27763 9.25 8.29071 9.25C8.30378 9.25 8.31686 9.25 8.32996 9.25C8.34305 9.25 8.35614 9.25 8.36925 9.25C8.38236 9.25 8.39548 9.25 8.4086 9.25C8.42172 9.25 8.43486 9.25 8.448 9.25C8.46114 9.25 8.47429 9.25 8.48744 9.25C8.5006 9.25 8.51376 9.25 8.52694 9.25C8.54011 9.25 8.55329 9.25 8.56648 9.25C8.57967 9.25 8.59286 9.25 8.60607 9.25C8.61927 9.25 8.63248 9.25 8.6457 9.25C8.65892 9.25 8.67215 9.25 8.68538 9.25C8.69862 9.25 8.71186 9.25 8.72511 9.25C8.73836 9.25 8.75161 9.25 8.76488 9.25C8.77814 9.25 8.79141 9.25 8.80469 9.25C8.81797 9.25 8.83126 9.25 8.84455 9.25C8.85784 9.25 8.87115 9.25 8.88445 9.25C8.89776 9.25 8.91108 9.25 8.9244 9.25C8.93772 9.25 8.95105 9.25 8.96438 9.25C8.97772 9.25 8.99106 9.25 9.00441 9.25C9.01776 9.25 9.03111 9.25 9.04448 9.25C9.05784 9.25 9.07121 9.25 9.08458 9.25C9.09796 9.25 9.11134 9.25 9.12473 9.25C9.13812 9.25 9.15152 9.25 9.16492 9.25C9.17832 9.25 9.19173 9.25 9.20514 9.25C9.21856 9.25 9.23198 9.25 9.2454 9.25C9.25883 9.25 9.27226 9.25 9.2857 9.25C9.29914 9.25 9.31259 9.25 9.32604 9.25C9.33949 9.25 9.35295 9.25 9.36641 9.25C9.37987 9.25 9.39334 9.25 9.40682 9.25C9.42029 9.25 9.43377 9.25 9.44726 9.25C9.46074 9.25 9.47424 9.25 9.48773 9.25C9.50123 9.25 9.51473 9.25 9.52824 9.25C9.54175 9.25 9.55526 9.25 9.56878 9.25C9.5823 9.25 9.59583 9.25 9.60936 9.25C9.62289 9.25 9.63642 9.25 9.64997 9.25C9.66351 9.25 9.67705 9.25 9.6906 9.25C9.70415 9.25 9.71771 9.25 9.73127 9.25C9.74483 9.25 9.7584 9.25 9.77197 9.25C9.78554 9.25 9.79912 9.25 9.8127 9.25C9.82628 9.25 9.83986 9.25 9.85345 9.25C9.86704 9.25 9.88064 9.25 9.89424 9.25C9.90784 9.25 9.92144 9.25 9.93505 9.25C9.94866 9.25 9.96227 9.25 9.97589 9.25C9.98951 9.25 10.0031 9.25 10.0168 9.25C10.0304 9.25 10.044 9.25 10.0577 9.25C10.0713 9.25 10.0849 9.25 10.0986 9.25C10.1122 9.25 10.1259 9.25 10.1395 9.25C10.1532 9.25 10.1668 9.25 10.1805 9.25C10.1941 9.25 10.2078 9.25 10.2215 9.25C10.2351 9.25 10.2488 9.25 10.2625 9.25C10.2762 9.25 10.2898 9.25 10.3035 9.25C10.3172 9.25 10.3309 9.25 10.3446 9.25C10.3583 9.25 10.372 9.25 10.3857 9.25C10.3994 9.25 10.4131 9.25 10.4268 9.25C10.4405 9.25 10.4542 9.25 10.4679 9.25C10.4816 9.25 10.4953 9.25 10.509 9.25C10.5227 9.25 10.5365 9.25 10.5502 9.25C10.5639 9.25 10.5776 9.25 10.5914 9.25C10.6051 9.25 10.6188 9.25 10.6325 9.25C10.6463 9.25 10.66 9.25 10.6738 9.25C10.6875 9.25 10.7012 9.25 10.715 9.25C10.7287 9.25 10.7425 9.25 10.7562 9.25C10.77 9.25 10.7837 9.25 10.7975 9.25C10.8112 9.25 10.825 9.25 10.8388 9.25C10.8525 9.25 10.8663 9.25 10.8801 9.25C10.8938 9.25 10.9076 9.25 10.9214 9.25C10.9351 9.25 10.9489 9.25 10.9627 9.25C10.9765 9.25 10.9902 9.25 11.004 9.25C11.0178 9.25 11.0316 9.25 11.0453 9.25C11.0591 9.25 11.0729 9.25 11.0867 9.25C11.1005 9.25 11.1143 9.25 11.1281 9.25C11.1418 9.25 11.1556 9.25 11.1694 9.25C11.1832 9.25 11.197 9.25 11.2108 9.25C11.2246 9.25 11.2384 9.25 11.2522 9.25C11.266 9.25 11.2798 9.25 11.2936 9.25C11.3074 9.25 11.3212 9.25 11.335 9.25C11.3488 9.25 11.3626 9.25 11.3764 9.25C11.3902 9.25 11.404 9.25 11.4178 9.25C11.4317 9.25 11.4455 9.25 11.4593 9.25C11.4731 9.25 11.4869 9.25 11.5007 9.25C11.5145 9.25 11.5283 9.25 11.5421 9.25C11.556 9.25 11.5698 9.25 11.5836 9.25C11.5974 9.25 11.6112 9.25 11.625 9.25C11.6389 9.25 11.6527 9.25 11.6665 9.25C11.6803 9.25 11.6941 9.25 11.7079 9.25C11.7218 9.25 11.7356 9.25 11.7494 9.25C11.7632 9.25 11.777 9.25 11.7908 9.25C11.8047 9.25 11.8185 9.25 11.8323 9.25C11.8461 9.25 11.8599 9.25 11.8738 9.25C11.8876 9.25 11.9014 9.25 11.9152 9.25C11.929 9.25 11.9428 9.25 11.9567 9.25C11.9705 9.25 11.9843 9.25 11.9981 9.25C12.0119 9.25 12.0258 9.25 12.0396 9.25C12.0534 9.25 12.0672 9.25 12.081 9.25C12.0948 9.25 12.1086 9.25 12.1225 9.25C12.1363 9.25 12.1501 9.25 12.1639 9.25C12.1777 9.25 12.1915 9.25 12.2053 9.25C12.2192 9.25 12.233 9.25 12.2468 9.25C12.2606 9.25 12.2744 9.25 12.2882 9.25C12.302 9.25 12.3158 9.25 12.3296 9.25C12.3434 9.25 12.3572 9.25 12.371 9.25C12.3848 9.25 12.3986 9.25 12.4124 9.25C12.4262 9.25 12.44 9.25 12.4538 9.25C12.4676 9.25 12.4814 9.25 12.4952 9.25C12.509 9.25 12.5228 9.25 12.5366 9.25C12.5504 9.25 12.5642 9.25 12.578 9.25C12.5918 9.25 12.6055 9.25 12.6193 9.25C12.6331 9.25 12.6469 9.25 12.6607 9.25C12.6745 9.25 12.6882 9.25 12.702 9.25C12.7158 9.25 12.7296 9.25 12.7433 9.25C12.7571 9.25 12.7709 9.25 12.7847 9.25C12.7984 9.25 12.8122 9.25 12.826 9.25C12.8397 9.25 12.8535 9.25 12.8672 9.25C12.881 9.25 12.8948 9.25 12.9085 9.25C12.9223 9.25 12.936 9.25 12.9498 9.25C12.9635 9.25 12.9773 9.25 12.991 9.25C13.0048 9.25 13.0185 9.25 13.0322 9.25C13.046 9.25 13.0597 9.25 13.0734 9.25C13.0872 9.25 13.1009 9.25 13.1146 9.25C13.1284 9.25 13.1421 9.25 13.1558 9.25C13.1695 9.25 13.1832 9.25 13.197 9.25C13.2107 9.25 13.2244 9.25 13.2381 9.25C13.2518 9.25 13.2655 9.25 13.2792 9.25C13.2929 9.25 13.3066 9.25 13.3203 9.25C13.334 9.25 13.3477 9.25 13.3614 9.25C13.3751 9.25 13.3887 9.25 13.4024 9.25C13.4161 9.25 13.4298 9.25 13.4435 9.25C13.4571 9.25 13.4708 9.25 13.4845 9.25C13.4981 9.25 13.5118 9.25 13.5254 9.25C13.5391 9.25 13.5528 9.25 13.5664 9.25C13.5801 9.25 13.5937 9.25 13.6073 9.25C13.621 9.25 13.6346 9.25 13.6483 9.25C13.6619 9.25 13.6755 9.25 13.6891 9.25C13.7028 9.25 13.7164 9.25 13.73 9.25C13.7436 9.25 13.7572 9.25 13.7708 9.25C13.7844 9.25 13.798 9.25 13.8116 9.25C13.8252 9.25 13.8388 9.25 13.8524 9.25C13.866 9.25 13.8796 9.25 13.8932 9.25C13.9067 9.25 13.9203 9.25 13.9339 9.25C13.9474 9.25 13.961 9.25 13.9746 9.25C13.9881 9.25 14.0017 9.25 14.0152 9.25C14.0288 9.25 14.0423 9.25 14.0559 9.25C14.0694 9.25 14.0829 9.25 14.0965 9.25C14.11 9.25 14.1235 9.25 14.137 9.25C14.1505 9.25 14.1641 9.25 14.1776 9.25C14.1911 9.25 14.2046 9.25 14.2181 9.25C14.2316 9.25 14.245 9.25 14.2585 9.25C14.272 9.25 14.2855 9.25 14.299 9.25C14.3124 9.25 14.3259 9.25 14.3394 9.25C14.3528 9.25 14.3663 9.25 14.3797 9.25C14.3932 9.25 14.4066 9.25 14.42 9.25C14.4335 9.25 14.4469 9.25 14.4603 9.25C14.4737 9.25 14.4872 9.25 14.5006 9.25C14.514 9.25 14.5274 9.25 14.5408 9.25C14.5542 9.25 14.5676 9.25 14.581 9.25C14.5944 9.25 14.6077 9.25 14.6211 9.25C14.6345 9.25 14.6478 9.25 14.6612 9.25C14.6746 9.25 14.6879 9.25 14.7013 9.25C14.7146 9.25 14.7279 9.25 14.7413 9.25C14.7546 9.25 14.7679 9.25 14.7812 9.25C14.7946 9.25 14.8079 9.25 14.8212 9.25C14.8345 9.25 14.8478 9.25 14.8611 9.25C14.8744 9.25 14.8876 9.25 14.9009 9.25C14.9142 9.25 14.9275 9.25 14.9407 9.25C14.954 9.25 14.9672 9.25 14.9805 9.25C14.9937 9.25 15.007 9.25 15.0202 9.25C15.0334 9.25 15.0466 9.25 15.0599 9.25C15.0731 9.25 15.0863 9.25 15.0995 9.25C15.1127 9.25 15.1259 9.25 15.1391 9.25C15.1522 9.25 15.1654 9.25 15.1786 9.25C15.1917 9.25 15.2049 9.25 15.2181 9.25C15.2312 9.25 15.2444 9.25 15.2575 9.25C15.2706 9.25 15.2838 9.25 15.2969 9.25C15.31 9.25 15.3231 9.25 15.3362 9.25C15.3493 9.25 15.3624 9.25 15.3755 9.25C15.3886 9.25 15.4017 9.25 15.4147 9.25C15.4278 9.25 15.4409 9.25 15.4539 9.25C15.467 9.25 15.48 9.25 15.493 9.25C15.5061 9.25 15.5191 9.25 15.5321 9.25C15.5451 9.25 15.5581 9.25 15.5711 9.25C15.5841 9.25 15.5971 9.25 15.6101 9.25C15.6231 9.25 15.6361 9.25 15.649 9.25C15.662 9.25 15.6749 9.25 15.6879 9.25C15.7008 9.25 15.7138 9.25 15.7267 9.25C15.7396 9.25 15.7525 9.25 15.7654 9.25C15.7783 9.25 15.7912 9.25 15.8041 9.25C15.817 9.25 15.8299 9.25 15.8428 9.25C15.8556 9.25 15.8685 9.25 15.8813 9.25C15.8942 9.25 15.907 9.25 15.9199 9.25C15.9327 9.25 15.9455 9.25 15.9583 9.25C15.9711 9.25 15.9839 9.25 15.9967 9.25C16.0095 9.25 16.0223 9.25 16.0351 9.25C16.0478 9.25 16.0606 9.25 16.0733 9.25C16.0861 9.25 16.0988 9.25 16.1116 9.25C16.1243 9.25 16.137 9.25 16.1497 9.25C16.1624 9.25 16.1751 9.25 16.1878 9.25C16.2005 9.25 16.2132 9.25 16.2259 9.25C16.2385 9.25 16.2512 9.25 16.2638 9.25C16.2765 9.25 16.2891 9.25 16.3017 9.25C16.3143 9.25 16.327 9.25 16.3396 9.25C16.3522 9.25 16.3648 9.25 16.3773 9.25C16.3899 9.25 16.4025 9.25 16.415 9.25C16.4276 9.25 16.4402 9.25 16.4527 9.25C16.4652 9.25 16.4777 9.25 16.4903 9.25C16.5028 9.25 16.5153 9.25 16.5278 9.25C16.5403 9.25 16.5527 9.25 16.5652 9.25C16.5777 9.25 16.5901 9.25 16.6026 9.25C16.615 9.25 16.6275 9.25 16.6399 9.25C16.6523 9.25 16.6647 9.25 16.6771 9.25C16.6895 9.25 16.7019 9.25 16.7143 9.25C16.7266 9.25 16.739 9.25 16.7514 9.25C16.7637 9.25 16.776 9.25 16.7884 9.25C16.8007 9.25 16.813 9.25 16.8253 9.25C16.8376 9.25 16.8499 9.25 16.8622 9.25C16.8745 9.25 16.8867 9.25 16.899 9.25C16.9112 9.25 16.9235 9.25 16.9357 9.25C16.9479 9.25 16.9601 9.25 16.9724 9.25C16.9846 9.25 16.9967 9.25 17.0089 9.25C17.0211 9.25 17.0333 9.25 17.0454 9.25C17.0576 9.25 17.0697 9.25 17.0818 9.25C17.094 9.25 17.1061 9.25 17.1182 9.25C17.1303 9.25 17.1424 9.25 17.1544 9.25C17.1665 9.25 17.1786 9.25 17.1906 9.25C17.2027 9.25 17.2147 9.25 17.2267 9.25C17.2388 9.25 17.2508 9.25 17.2628 9.25C17.2748 9.25 17.2868 9.25 17.2987 9.25C17.3107 9.25 17.3226 9.25 17.3346 9.25C17.3465 9.25 17.3585 9.25 17.3704 9.25C17.3823 9.25 17.3942 9.25 17.4061 9.25C17.418 9.25 17.4298 9.25 17.4417 9.25C17.4536 9.25 17.4654 9.25 17.4772 9.25C17.4891 9.25 17.5009 9.25 17.5127 9.25C17.5245 9.25 17.5363 9.25 17.5481 9.25C17.5599 9.25 17.5716 9.25 17.5834 9.25C17.5951 9.25 17.6068 9.25 17.6186 9.25C17.6303 9.25 17.642 9.25 17.6537 9.25C17.6654 9.25 17.6771 9.25 17.6887 9.25C17.7004 9.25 17.712 9.25 17.7237 9.25C17.7353 9.25 17.7469 9.25 17.7585 9.25C17.7701 9.25 17.7817 9.25 17.7933 9.25C17.8049 9.25 17.8164 9.25 17.828 9.25C17.8395 9.25 17.851 9.25 17.8625 9.25C17.8741 9.25 17.8856 9.25 17.897 9.25C17.9085 9.25 17.92 9.25 17.9315 9.25C17.9429 9.25 17.9543 9.25 17.9658 9.25C17.9772 9.25 17.9886 9.25 18 9.25V7.25C17.9886 7.25 17.9772 7.25 17.9658 7.25C17.9543 7.25 17.9429 7.25 17.9315 7.25C17.92 7.25 17.9085 7.25 17.897 7.25C17.8856 7.25 17.8741 7.25 17.8625 7.25C17.851 7.25 17.8395 7.25 17.828 7.25C17.8164 7.25 17.8049 7.25 17.7933 7.25C17.7817 7.25 17.7701 7.25 17.7585 7.25C17.7469 7.25 17.7353 7.25 17.7237 7.25C17.712 7.25 17.7004 7.25 17.6887 7.25C17.6771 7.25 17.6654 7.25 17.6537 7.25C17.642 7.25 17.6303 7.25 17.6186 7.25C17.6068 7.25 17.5951 7.25 17.5834 7.25C17.5716 7.25 17.5599 7.25 17.5481 7.25C17.5363 7.25 17.5245 7.25 17.5127 7.25C17.5009 7.25 17.4891 7.25 17.4772 7.25C17.4654 7.25 17.4536 7.25 17.4417 7.25C17.4298 7.25 17.418 7.25 17.4061 7.25C17.3942 7.25 17.3823 7.25 17.3704 7.25C17.3585 7.25 17.3465 7.25 17.3346 7.25C17.3226 7.25 17.3107 7.25 17.2987 7.25C17.2868 7.25 17.2748 7.25 17.2628 7.25C17.2508 7.25 17.2388 7.25 17.2267 7.25C17.2147 7.25 17.2027 7.25 17.1906 7.25C17.1786 7.25 17.1665 7.25 17.1544 7.25C17.1424 7.25 17.1303 7.25 17.1182 7.25C17.1061 7.25 17.094 7.25 17.0818 7.25C17.0697 7.25 17.0576 7.25 17.0454 7.25C17.0333 7.25 17.0211 7.25 17.0089 7.25C16.9967 7.25 16.9846 7.25 16.9724 7.25C16.9601 7.25 16.9479 7.25 16.9357 7.25C16.9235 7.25 16.9112 7.25 16.899 7.25C16.8867 7.25 16.8745 7.25 16.8622 7.25C16.8499 7.25 16.8376 7.25 16.8253 7.25C16.813 7.25 16.8007 7.25 16.7884 7.25C16.776 7.25 16.7637 7.25 16.7514 7.25C16.739 7.25 16.7266 7.25 16.7143 7.25C16.7019 7.25 16.6895 7.25 16.6771 7.25C16.6647 7.25 16.6523 7.25 16.6399 7.25C16.6275 7.25 16.615 7.25 16.6026 7.25C16.5901 7.25 16.5777 7.25 16.5652 7.25C16.5527 7.25 16.5403 7.25 16.5278 7.25C16.5153 7.25 16.5028 7.25 16.4903 7.25C16.4777 7.25 16.4652 7.25 16.4527 7.25C16.4402 7.25 16.4276 7.25 16.415 7.25C16.4025 7.25 16.3899 7.25 16.3773 7.25C16.3648 7.25 16.3522 7.25 16.3396 7.25C16.327 7.25 16.3143 7.25 16.3017 7.25C16.2891 7.25 16.2765 7.25 16.2638 7.25C16.2512 7.25 16.2385 7.25 16.2259 7.25C16.2132 7.25 16.2005 7.25 16.1878 7.25C16.1751 7.25 16.1624 7.25 16.1497 7.25C16.137 7.25 16.1243 7.25 16.1116 7.25C16.0988 7.25 16.0861 7.25 16.0733 7.25C16.0606 7.25 16.0478 7.25 16.0351 7.25C16.0223 7.25 16.0095 7.25 15.9967 7.25C15.9839 7.25 15.9711 7.25 15.9583 7.25C15.9455 7.25 15.9327 7.25 15.9199 7.25C15.907 7.25 15.8942 7.25 15.8813 7.25C15.8685 7.25 15.8556 7.25 15.8428 7.25C15.8299 7.25 15.817 7.25 15.8041 7.25C15.7912 7.25 15.7783 7.25 15.7654 7.25C15.7525 7.25 15.7396 7.25 15.7267 7.25C15.7138 7.25 15.7008 7.25 15.6879 7.25C15.6749 7.25 15.662 7.25 15.649 7.25C15.6361 7.25 15.6231 7.25 15.6101 7.25C15.5971 7.25 15.5841 7.25 15.5711 7.25C15.5581 7.25 15.5451 7.25 15.5321 7.25C15.5191 7.25 15.5061 7.25 15.493 7.25C15.48 7.25 15.467 7.25 15.4539 7.25C15.4409 7.25 15.4278 7.25 15.4147 7.25C15.4017 7.25 15.3886 7.25 15.3755 7.25C15.3624 7.25 15.3493 7.25 15.3362 7.25C15.3231 7.25 15.31 7.25 15.2969 7.25C15.2838 7.25 15.2706 7.25 15.2575 7.25C15.2444 7.25 15.2312 7.25 15.2181 7.25C15.2049 7.25 15.1917 7.25 15.1786 7.25C15.1654 7.25 15.1522 7.25 15.1391 7.25C15.1259 7.25 15.1127 7.25 15.0995 7.25C15.0863 7.25 15.0731 7.25 15.0599 7.25C15.0466 7.25 15.0334 7.25 15.0202 7.25C15.007 7.25 14.9937 7.25 14.9805 7.25C14.9672 7.25 14.954 7.25 14.9407 7.25C14.9275 7.25 14.9142 7.25 14.9009 7.25C14.8876 7.25 14.8744 7.25 14.8611 7.25C14.8478 7.25 14.8345 7.25 14.8212 7.25C14.8079 7.25 14.7946 7.25 14.7812 7.25C14.7679 7.25 14.7546 7.25 14.7413 7.25C14.7279 7.25 14.7146 7.25 14.7013 7.25C14.6879 7.25 14.6746 7.25 14.6612 7.25C14.6478 7.25 14.6345 7.25 14.6211 7.25C14.6077 7.25 14.5944 7.25 14.581 7.25C14.5676 7.25 14.5542 7.25 14.5408 7.25C14.5274 7.25 14.514 7.25 14.5006 7.25C14.4872 7.25 14.4737 7.25 14.4603 7.25C14.4469 7.25 14.4335 7.25 14.42 7.25C14.4066 7.25 14.3932 7.25 14.3797 7.25C14.3663 7.25 14.3528 7.25 14.3394 7.25C14.3259 7.25 14.3124 7.25 14.299 7.25C14.2855 7.25 14.272 7.25 14.2585 7.25C14.245 7.25 14.2316 7.25 14.2181 7.25C14.2046 7.25 14.1911 7.25 14.1776 7.25C14.1641 7.25 14.1505 7.25 14.137 7.25C14.1235 7.25 14.11 7.25 14.0965 7.25C14.0829 7.25 14.0694 7.25 14.0559 7.25C14.0423 7.25 14.0288 7.25 14.0152 7.25C14.0017 7.25 13.9881 7.25 13.9746 7.25C13.961 7.25 13.9474 7.25 13.9339 7.25C13.9203 7.25 13.9067 7.25 13.8932 7.25C13.8796 7.25 13.866 7.25 13.8524 7.25C13.8388 7.25 13.8252 7.25 13.8116 7.25C13.798 7.25 13.7844 7.25 13.7708 7.25C13.7572 7.25 13.7436 7.25 13.73 7.25C13.7164 7.25 13.7028 7.25 13.6891 7.25C13.6755 7.25 13.6619 7.25 13.6483 7.25C13.6346 7.25 13.621 7.25 13.6073 7.25C13.5937 7.25 13.5801 7.25 13.5664 7.25C13.5528 7.25 13.5391 7.25 13.5254 7.25C13.5118 7.25 13.4981 7.25 13.4845 7.25C13.4708 7.25 13.4571 7.25 13.4435 7.25C13.4298 7.25 13.4161 7.25 13.4024 7.25C13.3887 7.25 13.3751 7.25 13.3614 7.25C13.3477 7.25 13.334 7.25 13.3203 7.25C13.3066 7.25 13.2929 7.25 13.2792 7.25C13.2655 7.25 13.2518 7.25 13.2381 7.25C13.2244 7.25 13.2107 7.25 13.197 7.25C13.1832 7.25 13.1695 7.25 13.1558 7.25C13.1421 7.25 13.1284 7.25 13.1146 7.25C13.1009 7.25 13.0872 7.25 13.0734 7.25C13.0597 7.25 13.046 7.25 13.0322 7.25C13.0185 7.25 13.0048 7.25 12.991 7.25C12.9773 7.25 12.9635 7.25 12.9498 7.25C12.936 7.25 12.9223 7.25 12.9085 7.25C12.8948 7.25 12.881 7.25 12.8672 7.25C12.8535 7.25 12.8397 7.25 12.826 7.25C12.8122 7.25 12.7984 7.25 12.7847 7.25C12.7709 7.25 12.7571 7.25 12.7433 7.25C12.7296 7.25 12.7158 7.25 12.702 7.25C12.6882 7.25 12.6745 7.25 12.6607 7.25C12.6469 7.25 12.6331 7.25 12.6193 7.25C12.6055 7.25 12.5918 7.25 12.578 7.25C12.5642 7.25 12.5504 7.25 12.5366 7.25C12.5228 7.25 12.509 7.25 12.4952 7.25C12.4814 7.25 12.4676 7.25 12.4538 7.25C12.44 7.25 12.4262 7.25 12.4124 7.25C12.3986 7.25 12.3848 7.25 12.371 7.25C12.3572 7.25 12.3434 7.25 12.3296 7.25C12.3158 7.25 12.302 7.25 12.2882 7.25C12.2744 7.25 12.2606 7.25 12.2468 7.25C12.233 7.25 12.2192 7.25 12.2053 7.25C12.1915 7.25 12.1777 7.25 12.1639 7.25C12.1501 7.25 12.1363 7.25 12.1225 7.25C12.1086 7.25 12.0948 7.25 12.081 7.25C12.0672 7.25 12.0534 7.25 12.0396 7.25C12.0258 7.25 12.0119 7.25 11.9981 7.25C11.9843 7.25 11.9705 7.25 11.9567 7.25C11.9428 7.25 11.929 7.25 11.9152 7.25C11.9014 7.25 11.8876 7.25 11.8738 7.25C11.8599 7.25 11.8461 7.25 11.8323 7.25C11.8185 7.25 11.8047 7.25 11.7908 7.25C11.777 7.25 11.7632 7.25 11.7494 7.25C11.7356 7.25 11.7218 7.25 11.7079 7.25C11.6941 7.25 11.6803 7.25 11.6665 7.25C11.6527 7.25 11.6389 7.25 11.625 7.25C11.6112 7.25 11.5974 7.25 11.5836 7.25C11.5698 7.25 11.556 7.25 11.5421 7.25C11.5283 7.25 11.5145 7.25 11.5007 7.25C11.4869 7.25 11.4731 7.25 11.4593 7.25C11.4455 7.25 11.4317 7.25 11.4178 7.25C11.404 7.25 11.3902 7.25 11.3764 7.25C11.3626 7.25 11.3488 7.25 11.335 7.25C11.3212 7.25 11.3074 7.25 11.2936 7.25C11.2798 7.25 11.266 7.25 11.2522 7.25C11.2384 7.25 11.2246 7.25 11.2108 7.25C11.197 7.25 11.1832 7.25 11.1694 7.25C11.1556 7.25 11.1418 7.25 11.1281 7.25C11.1143 7.25 11.1005 7.25 11.0867 7.25C11.0729 7.25 11.0591 7.25 11.0453 7.25C11.0316 7.25 11.0178 7.25 11.004 7.25C10.9902 7.25 10.9765 7.25 10.9627 7.25C10.9489 7.25 10.9351 7.25 10.9214 7.25C10.9076 7.25 10.8938 7.25 10.8801 7.25C10.8663 7.25 10.8525 7.25 10.8388 7.25C10.825 7.25 10.8112 7.25 10.7975 7.25C10.7837 7.25 10.77 7.25 10.7562 7.25C10.7425 7.25 10.7287 7.25 10.715 7.25C10.7012 7.25 10.6875 7.25 10.6738 7.25C10.66 7.25 10.6463 7.25 10.6325 7.25C10.6188 7.25 10.6051 7.25 10.5914 7.25C10.5776 7.25 10.5639 7.25 10.5502 7.25C10.5365 7.25 10.5227 7.25 10.509 7.25C10.4953 7.25 10.4816 7.25 10.4679 7.25C10.4542 7.25 10.4405 7.25 10.4268 7.25C10.4131 7.25 10.3994 7.25 10.3857 7.25C10.372 7.25 10.3583 7.25 10.3446 7.25C10.3309 7.25 10.3172 7.25 10.3035 7.25C10.2898 7.25 10.2762 7.25 10.2625 7.25C10.2488 7.25 10.2351 7.25 10.2215 7.25C10.2078 7.25 10.1941 7.25 10.1805 7.25C10.1668 7.25 10.1532 7.25 10.1395 7.25C10.1259 7.25 10.1122 7.25 10.0986 7.25C10.0849 7.25 10.0713 7.25 10.0577 7.25C10.044 7.25 10.0304 7.25 10.0168 7.25C10.0031 7.25 9.98951 7.25 9.97589 7.25C9.96227 7.25 9.94866 7.25 9.93505 7.25C9.92144 7.25 9.90784 7.25 9.89424 7.25C9.88064 7.25 9.86704 7.25 9.85345 7.25C9.83986 7.25 9.82628 7.25 9.8127 7.25C9.79912 7.25 9.78554 7.25 9.77197 7.25C9.7584 7.25 9.74483 7.25 9.73127 7.25C9.71771 7.25 9.70415 7.25 9.6906 7.25C9.67705 7.25 9.66351 7.25 9.64997 7.25C9.63642 7.25 9.62289 7.25 9.60936 7.25C9.59583 7.25 9.5823 7.25 9.56878 7.25C9.55526 7.25 9.54175 7.25 9.52824 7.25C9.51473 7.25 9.50123 7.25 9.48773 7.25C9.47424 7.25 9.46074 7.25 9.44726 7.25C9.43377 7.25 9.42029 7.25 9.40682 7.25C9.39334 7.25 9.37987 7.25 9.36641 7.25C9.35295 7.25 9.33949 7.25 9.32604 7.25C9.31259 7.25 9.29914 7.25 9.2857 7.25C9.27226 7.25 9.25883 7.25 9.2454 7.25C9.23198 7.25 9.21856 7.25 9.20514 7.25C9.19173 7.25 9.17832 7.25 9.16492 7.25C9.15152 7.25 9.13812 7.25 9.12473 7.25C9.11134 7.25 9.09796 7.25 9.08458 7.25C9.07121 7.25 9.05784 7.25 9.04448 7.25C9.03111 7.25 9.01776 7.25 9.00441 7.25C8.99106 7.25 8.97772 7.25 8.96438 7.25C8.95105 7.25 8.93772 7.25 8.9244 7.25C8.91108 7.25 8.89776 7.25 8.88445 7.25C8.87115 7.25 8.85784 7.25 8.84455 7.25C8.83126 7.25 8.81797 7.25 8.80469 7.25C8.79141 7.25 8.77814 7.25 8.76488 7.25C8.75161 7.25 8.73836 7.25 8.72511 7.25C8.71186 7.25 8.69862 7.25 8.68538 7.25C8.67215 7.25 8.65892 7.25 8.6457 7.25C8.63248 7.25 8.61927 7.25 8.60607 7.25C8.59286 7.25 8.57967 7.25 8.56648 7.25C8.55329 7.25 8.54011 7.25 8.52694 7.25C8.51376 7.25 8.5006 7.25 8.48744 7.25C8.47429 7.25 8.46114 7.25 8.448 7.25C8.43486 7.25 8.42172 7.25 8.4086 7.25C8.39548 7.25 8.38236 7.25 8.36925 7.25C8.35614 7.25 8.34305 7.25 8.32996 7.25C8.31686 7.25 8.30378 7.25 8.29071 7.25C8.27763 7.25 8.26457 7.25 8.25151 7.25C8.23846 7.25 8.22541 7.25 8.21237 7.25C8.19933 7.25 8.1863 7.25 8.17328 7.25C8.16026 7.25 8.14724 7.25 8.13424 7.25C8.12123 7.25 8.10824 7.25 8.09525 7.25C8.08227 7.25 8.06929 7.25 8.05632 7.25C8.04335 7.25 8.0304 7.25 8.01745 7.25C8.0045 7.25 7.99156 7.25 7.97863 7.25C7.96569 7.25 7.95277 7.25 7.93986 7.25C7.92695 7.25 7.91405 7.25 7.90115 7.25C7.88826 7.25 7.87537 7.25 7.8625 7.25C7.84963 7.25 7.83676 7.25 7.82391 7.25C7.81105 7.25 7.79821 7.25 7.78537 7.25C7.77253 7.25 7.75971 7.25 7.74689 7.25C7.73408 7.25 7.72127 7.25 7.70847 7.25C7.69568 7.25 7.68289 7.25 7.67012 7.25C7.65734 7.25 7.64458 7.25 7.63182 7.25C7.61906 7.25 7.60632 7.25 7.59358 7.25C7.58085 7.25 7.56812 7.25 7.55541 7.25C7.54269 7.25 7.52999 7.25 7.5173 7.25C7.5046 7.25 7.49192 7.25 7.47925 7.25C7.46657 7.25 7.45391 7.25 7.44126 7.25C7.42861 7.25 7.41597 7.25 7.40334 7.25C7.39071 7.25 7.37809 7.25 7.36548 7.25C7.35287 7.25 7.34028 7.25 7.32769 7.25C7.3151 7.25 7.30253 7.25 7.28996 7.25C7.2774 7.25 7.26485 7.25 7.2523 7.25C7.23976 7.25 7.22723 7.25 7.21471 7.25C7.20219 7.25 7.18968 7.25 7.17719 7.25C7.16469 7.25 7.1522 7.25 7.13973 7.25C7.12725 7.25 7.11479 7.25 7.10234 7.25C7.08989 7.25 7.07745 7.25 7.06502 7.25C7.05259 7.25 7.04018 7.25 7.02777 7.25C7.01537 7.25 7.00297 7.25 6.99059 7.25C6.97821 7.25 6.96584 7.25 6.95349 7.25C6.94113 7.25 6.92878 7.25 6.91645 7.25C6.90412 7.25 6.89179 7.25 6.87949 7.25C6.86718 7.25 6.85488 7.25 6.84259 7.25C6.83031 7.25 6.81804 7.25 6.80578 7.25C6.79352 7.25 6.78127 7.25 6.76903 7.25C6.7568 7.25 6.74458 7.25 6.73236 7.25C6.72015 7.25 6.70796 7.25 6.69577 7.25C6.68359 7.25 6.67141 7.25 6.65925 7.25C6.64709 7.25 6.63495 7.25 6.62281 7.25C6.61068 7.25 6.59856 7.25 6.58645 7.25C6.57434 7.25 6.56224 7.25 6.55016 7.25C6.53808 7.25 6.52601 7.25 6.51395 7.25C6.50189 7.25 6.48985 7.25 6.47782 7.25C6.46579 7.25 6.45377 7.25 6.44177 7.25C6.42976 7.25 6.41777 7.25 6.4058 7.25C6.39382 7.25 6.38186 7.25 6.36991 7.25C6.35796 7.25 6.34602 7.25 6.3341 7.25C6.32217 7.25 6.31026 7.25 6.29837 7.25C6.28647 7.25 6.27459 7.25 6.26272 7.25C6.25085 7.25 6.239 7.25 6.22716 7.25C6.21532 7.25 6.20349 7.25 6.19168 7.25C6.17987 7.25 6.16807 7.25 6.15628 7.25C6.1445 7.25 6.13273 7.25 6.12097 7.25C6.10922 7.25 6.09747 7.25 6.08575 7.25C6.07402 7.25 6.0623 7.25 6.0506 7.25C6.03891 7.25 6.02722 7.25 6.01555 7.25C6.00388 7.25 5.99222 7.25 5.98058 7.25C5.96894 7.25 5.95731 7.25 5.9457 7.25C5.93409 7.25 5.92249 7.25 5.91091 7.25C5.89933 7.25 5.88776 7.25 5.87621 7.25C5.86466 7.25 5.85312 7.25 5.84159 7.25C5.83007 7.25 5.81856 7.25 5.80707 7.25C5.79558 7.25 5.7841 7.25 5.77264 7.25C5.76117 7.25 5.74973 7.25 5.73829 7.25C5.72686 7.25 5.71544 7.25 5.70404 7.25C5.69264 7.25 5.68125 7.25 5.66988 7.25C5.65851 7.25 5.64716 7.25 5.63582 7.25C5.62448 7.25 5.61315 7.25 5.60184 7.25C5.59053 7.25 5.57924 7.25 5.56796 7.25C5.55669 7.25 5.54543 7.25 5.53418 7.25C5.52293 7.25 5.5117 7.25 5.50049 7.25C5.48928 7.25 5.47808 7.25 5.4669 7.25C5.45571 7.25 5.44455 7.25 5.4334 7.25C5.42225 7.25 5.41112 7.25 5.4 7.25C5.38888 7.25 5.37778 7.25 5.36669 7.25C5.35561 7.25 5.34454 7.25 5.33349 7.25C5.32244 7.25 5.3114 7.25 5.30038 7.25C5.28936 7.25 5.27836 7.25 5.26737 7.25C5.25639 7.25 5.24542 7.25 5.23447 7.25C5.22351 7.25 5.21258 7.25 5.20166 7.25C5.19074 7.25 5.17984 7.25 5.16895 7.25C5.15807 7.25 5.1472 7.25 5.13635 7.25C5.1255 7.25 5.11466 7.25 5.10385 7.25C5.09303 7.25 5.08223 7.25 5.07144 7.25C5.06066 7.25 5.0499 7.25 5.03915 7.25C5.0284 7.25 5.01767 7.25 5.00695 7.25C4.99624 7.25 4.98555 7.25 4.97487 7.25C4.96419 7.25 4.95353 7.25 4.94288 7.25C4.93224 7.25 4.92161 7.25 4.911 7.25C4.9004 7.25 4.88981 7.25 4.87923 7.25C4.86866 7.25 4.85811 7.25 4.84757 7.25C4.83703 7.25 4.82651 7.25 4.81601 7.25C4.80551 7.25 4.79503 7.25 4.78456 7.25C4.7741 7.25 4.76365 7.25 4.75322 7.25C4.74279 7.25 4.73238 7.25 4.72199 7.25C4.7116 7.25 4.70122 7.25 4.69087 7.25C4.68051 7.25 4.67017 7.25 4.65985 7.25C4.64954 7.25 4.63923 7.25 4.62895 7.25C4.61867 7.25 4.60841 7.25 4.59816 7.25C4.58792 7.25 4.57769 7.25 4.56749 7.25C4.55728 7.25 4.54709 7.25 4.53692 7.25C4.52675 7.25 4.5166 7.25 4.50647 7.25C4.49634 7.25 4.48623 7.25 4.47613 7.25C4.46604 7.25 4.45596 7.25 4.44591 7.25C4.43585 7.25 4.42582 7.25 4.4158 7.25C4.40578 7.25 4.39579 7.25 4.38581 7.25C4.37583 7.25 4.36587 7.25 4.35593 7.25C4.34599 7.25 4.33607 7.25 4.32617 7.25C4.31627 7.25 4.30639 7.25 4.29653 7.25C4.28667 7.25 4.27683 7.25 4.267 7.25C4.25718 7.25 4.24738 7.25 4.2376 7.25C4.22782 7.25 4.21805 7.25 4.20831 7.25C4.19857 7.25 4.18885 7.25 4.17914 7.25C4.16944 7.25 4.15976 7.25 4.1501 7.25C4.14043 7.25 4.13079 7.25 4.12117 7.25C4.11155 7.25 4.10195 7.25 4.09237 7.25C4.08278 7.25 4.07322 7.25 4.06368 7.25C4.05414 7.25 4.04462 7.25 4.03512 7.25C4.02562 7.25 4.01614 7.25 4.00669 7.25C3.99723 7.25 3.98779 7.25 3.97837 7.25C3.96896 7.25 3.95956 7.25 3.95018 7.25C3.94081 7.25 3.93145 7.25 3.92212 7.25C3.91279 7.25 3.90347 7.25 3.89418 7.25C3.88489 7.25 3.87562 7.25 3.86637 7.25C3.85712 7.25 3.84789 7.25 3.83868 7.25C3.82948 7.25 3.82029 7.25 3.81113 7.25C3.80196 7.25 3.79282 7.25 3.7837 7.25C3.77457 7.25 3.76547 7.25 3.75639 7.25C3.74731 7.25 3.73826 7.25 3.72922 7.25C3.72018 7.25 3.71117 7.25 3.70218 7.25C3.69318 7.25 3.68421 7.25 3.67526 7.25C3.66632 7.25 3.65739 7.25 3.64848 7.25C3.63958 7.25 3.63069 7.25 3.62183 7.25C3.61297 7.25 3.60413 7.25 3.59531 7.25C3.58649 7.25 3.5777 7.25 3.56893 7.25C3.56015 7.25 3.5514 7.25 3.54267 7.25C3.53394 7.25 3.52524 7.25 3.51655 7.25C3.50787 7.25 3.49921 7.25 3.49057 7.25C3.48193 7.25 3.47331 7.25 3.46472 7.25C3.45612 7.25 3.44755 7.25 3.439 7.25C3.43045 7.25 3.42193 7.25 3.41343 7.25C3.40492 7.25 3.39644 7.25 3.38798 7.25C3.37953 7.25 3.37109 7.25 3.36268 7.25C3.35427 7.25 3.34588 7.25 3.33751 7.25C3.32915 7.25 3.3208 7.25 3.31248 7.25C3.30416 7.25 3.29587 7.25 3.28759 7.25C3.27932 7.25 3.27107 7.25 3.26284 7.25C3.25462 7.25 3.24641 7.25 3.23823 7.25C3.23005 7.25 3.2219 7.25 3.21377 7.25C3.20563 7.25 3.19752 7.25 3.18944 7.25C3.18135 7.25 3.17329 7.25 3.16525 7.25C3.15721 7.25 3.1492 7.25 3.14121 7.25C3.13322 7.25 3.12525 7.25 3.11731 7.25C3.10937 7.25 3.10145 7.25 3.09355 7.25C3.08566 7.25 3.07779 7.25 3.06994 7.25C3.06209 7.25 3.05427 7.25 3.04647 7.25C3.03868 7.25 3.0309 7.25 3.02315 7.25C3.0154 7.25 3.00768 7.25 2.99998 7.25C2.99228 7.25 2.9846 7.25 2.97695 7.25C2.9693 7.25 2.96167 7.25 2.95406 7.25C2.94646 7.25 2.93888 7.25 2.93133 7.25C2.92378 7.25 2.91625 7.25 2.90875 7.25C2.90124 7.25 2.89376 7.25 2.88631 7.25C2.87885 7.25 2.87143 7.25 2.86402 7.25C2.85662 7.25 2.84924 7.25 2.84188 7.25C2.83453 7.25 2.8272 7.25 2.8199 7.25C2.81259 7.25 2.80532 7.25 2.79806 7.25C2.79081 7.25 2.78358 7.25 2.77638 7.25C2.76918 7.25 2.762 7.25 2.75485 7.25C2.7477 7.25 2.74057 7.25 2.73347 7.25C2.72637 7.25 2.7193 7.25 2.71225 7.25C2.7052 7.25 2.69817 7.25 2.69118 7.25C2.68418 7.25 2.67721 7.25 2.67026 7.25C2.66332 7.25 2.6564 7.25 2.6495 7.25C2.64261 7.25 2.63574 7.25 2.6289 7.25C2.62206 7.25 2.61524 7.25 2.60845 7.25C2.60166 7.25 2.5949 7.25 2.58816 7.25C2.58142 7.25 2.57471 7.25 2.56803 7.25C2.56135 7.25 2.55469 7.25 2.54806 7.25C2.54142 7.25 2.53482 7.25 2.52824 7.25C2.52166 7.25 2.51511 7.25 2.50859 7.25C2.50206 7.25 2.49556 7.25 2.48909 7.25C2.48262 7.25 2.47617 7.25 2.46976 7.25C2.46334 7.25 2.45695 7.25 2.45058 7.25C2.44422 7.25 2.43788 7.25 2.43157 7.25C2.42526 7.25 2.41898 7.25 2.41272 7.25C2.40647 7.25 2.40024 7.25 2.39404 7.25C2.38783 7.25 2.38166 7.25 2.37551 7.25C2.36937 7.25 2.36325 7.25 2.35715 7.25C2.35106 7.25 2.345 7.25 2.33896 7.25C2.33292 7.25 2.32691 7.25 2.32093 7.25C2.31495 7.25 2.309 7.25 2.30307 7.25C2.29714 7.25 2.29125 7.25 2.28537 7.25C2.2795 7.25 2.27366 7.25 2.26785 7.25C2.26203 7.25 2.25624 7.25 2.25048 7.25C2.24473 7.25 2.23899 7.25 2.23329 7.25C2.22759 7.25 2.22191 7.25 2.21627 7.25C2.21062 7.25 2.205 7.25 2.19941 7.25C2.19382 7.25 2.18826 7.25 2.18273 7.25C2.1772 7.25 2.17169 7.25 2.16622 7.25C2.16074 7.25 2.15529 7.25 2.14987 7.25C2.14445 7.25 2.13906 7.25 2.1337 7.25C2.12834 7.25 2.12301 7.25 2.1177 7.25C2.1124 7.25 2.10713 7.25 2.10188 7.25C2.09663 7.25 2.09142 7.25 2.08623 7.25C2.08104 7.25 2.07588 7.25 2.07075 7.25C2.06562 7.25 2.06052 7.25 2.05545 7.25C2.05038 7.25 2.04533 7.25 2.04032 7.25C2.03531 7.25 2.03032 7.25 2.02537 7.25C2.02041 7.25 2.01549 7.25 2.01059 7.25C2.0057 7.25 2.00083 7.25 1.99599 7.25C1.99116 7.25 1.98635 7.25 1.98157 7.25C1.9768 7.25 1.97205 7.25 1.96733 7.25C1.96261 7.25 1.95793 7.25 1.95327 7.25C1.94861 7.25 1.94398 7.25 1.93938 7.25C1.93479 7.25 1.93022 7.25 1.92568 7.25C1.92114 7.25 1.91663 7.25 1.91216 7.25C1.90768 7.25 1.90323 7.25 1.89881 7.25C1.8944 7.25 1.89001 7.25 1.88565 7.25C1.8813 7.25 1.87697 7.25 1.87268 7.25C1.86838 7.25 1.86412 7.25 1.85988 7.25C1.85565 7.25 1.85144 7.25 1.84727 7.25C1.8431 7.25 1.83895 7.25 1.83484 7.25C1.83073 7.25 1.82665 7.25 1.8226 7.25C1.81855 7.25 1.81453 7.25 1.81054 7.25C1.80655 7.25 1.8026 7.25 1.79867 7.25C1.79474 7.25 1.79085 7.25 1.78698 7.25C1.78312 7.25 1.77929 7.25 1.77549 7.25C1.77168 7.25 1.76791 7.25 1.76417 7.25C1.76044 7.25 1.75673 7.25 1.75305 7.25C1.74938 7.25 1.74573 7.25 1.74212 7.25C1.7385 7.25 1.73492 7.25 1.73137 7.25C1.72782 7.25 1.72431 7.25 1.72082 7.25C1.71733 7.25 1.71388 7.25 1.71046 7.25C1.70703 7.25 1.70364 7.25 1.70028 7.25C1.69692 7.25 1.6936 7.25 1.6903 7.25C1.68701 7.25 1.68374 7.25 1.68051 7.25C1.67728 7.25 1.67408 7.25 1.67092 7.25C1.66775 7.25 1.66462 7.25 1.66151 7.25C1.65841 7.25 1.65534 7.25 1.65231 7.25C1.64927 7.25 1.64626 7.25 1.64329 7.25C1.64032 7.25 1.63738 7.25 1.63447 7.25C1.63157 7.25 1.62869 7.25 1.62585 7.25C1.62301 7.25 1.6202 7.25 1.61742 7.25C1.61465 7.25 1.6119 7.25 1.60919 7.25C1.60648 7.25 1.60381 7.25 1.60116 7.25C1.59852 7.25 1.59591 7.25 1.59333 7.25C1.59075 7.25 1.58821 7.25 1.58569 7.25C1.58318 7.25 1.5807 7.25 1.57826 7.25C1.57581 7.25 1.5734 7.25 1.57102 7.25C1.56864 7.25 1.5663 7.25 1.56399 7.25C1.56168 7.25 1.5594 7.25 1.55715 7.25C1.55491 7.25 1.5527 7.25 1.55052 7.25C1.54834 7.25 1.5462 7.25 1.54409 7.25C1.54198 7.25 1.53991 7.25 1.53786 7.25C1.53582 7.25 1.53381 7.25 1.53184 7.25C1.52987 7.25 1.52793 7.25 1.52602 7.25C1.52411 7.25 1.52224 7.25 1.5204 7.25C1.51857 7.25 1.51676 7.25 1.51499 7.25C1.51322 7.25 1.51149 7.25 1.50979 7.25C1.50809 7.25 1.50642 7.25 1.50479 7.25C1.50316 7.25 1.50156 7.25 1.5 7.25V9.25Z" fill="black"/>
<path d="M12.7071 1.04289L12 0.335786L10.5858 1.75L11.2929 2.45711L12.7071 1.04289ZM17.7929 8.95711C18.1834 9.34763 18.8166 9.34763 19.2071 8.95711C19.5976 8.56658 19.5976 7.93342 19.2071 7.54289L17.7929 8.95711ZM11.2929 2.45711L17.7929 8.95711L19.2071 7.54289L12.7071 1.04289L11.2929 2.45711Z" fill="black"/>
</svg>
