<svg width="36" height="36" viewBox="0 0 36 36" fill="none" xmlns="http://www.w3.org/2000/svg">
<circle cx="18" cy="18" r="18" fill="black"/>
<path d="M12.6675 19.8302H12.1675V20.8302H12.6675V19.8302ZM23.6675 20.8302C23.9437 20.8302 24.1675 20.6063 24.1675 20.3302C24.1675 20.0541 23.9437 19.8302 23.6675 19.8302V20.8302ZM12.6675 20.8302H23.6675V19.8302H12.6675V20.8302Z" fill="white"/>
<path d="M20.0227 15.6455L19.6691 15.2919L18.962 15.999L19.3156 16.3526L20.0227 15.6455ZM23.6489 20.6859C23.8442 20.8812 24.1608 20.8812 24.356 20.6859C24.5513 20.4906 24.5513 20.1741 24.356 19.9788L23.6489 20.6859ZM19.3156 16.3526L23.6489 20.6859L24.356 19.9788L20.0227 15.6455L19.3156 16.3526Z" fill="white"/>
</svg>
