<svg width="27" height="28" viewBox="0 0 27 28" fill="none" xmlns="http://www.w3.org/2000/svg">
<path d="M6.05059 26.0418L5.54796 26.5732L6.61084 27.5785L7.11347 27.0471L6.05059 26.0418ZM26.1011 6.97092C26.3787 6.67741 26.3658 6.21444 26.0723 5.93685C25.7788 5.65925 25.3159 5.67215 25.0383 5.96566L26.1011 6.97092ZM7.11347 27.0471C7.11527 27.0452 7.11711 27.0432 7.11899 27.0412C7.12086 27.0392 7.12278 27.0372 7.12474 27.0352C7.12669 27.0331 7.12869 27.031 7.13073 27.0288C7.13276 27.0267 7.13484 27.0245 7.13695 27.0222C7.13907 27.02 7.14122 27.0177 7.14341 27.0154C7.14561 27.0131 7.14784 27.0107 7.15011 27.0083C7.15238 27.0059 7.15469 27.0035 7.15704 27.001C7.15939 26.9985 7.16178 26.996 7.16421 26.9934C7.16664 26.9908 7.16911 26.9882 7.17161 26.9856C7.17412 26.9829 7.17666 26.9803 7.17924 26.9775C7.18183 26.9748 7.18445 26.972 7.18711 26.9692C7.18977 26.9664 7.19247 26.9635 7.1952 26.9606C7.19794 26.9578 7.20072 26.9548 7.20353 26.9518C7.20634 26.9489 7.2092 26.9459 7.21209 26.9428C7.21498 26.9397 7.21791 26.9366 7.22087 26.9335C7.22384 26.9304 7.22684 26.9272 7.22989 26.924C7.23293 26.9208 7.23601 26.9175 7.23913 26.9142C7.24225 26.9109 7.24541 26.9076 7.2486 26.9042C7.25179 26.9008 7.25503 26.8974 7.2583 26.8939C7.26157 26.8905 7.26487 26.887 7.26822 26.8834C7.27157 26.8799 7.27495 26.8763 7.27837 26.8727C7.28179 26.8691 7.28525 26.8654 7.28874 26.8617C7.29224 26.8581 7.29577 26.8543 7.29934 26.8505C7.30291 26.8468 7.30651 26.843 7.31016 26.8391C7.3138 26.8352 7.31748 26.8314 7.3212 26.8274C7.32492 26.8235 7.32867 26.8195 7.33247 26.8155C7.33626 26.8115 7.34009 26.8075 7.34395 26.8034C7.34782 26.7993 7.35172 26.7952 7.35566 26.791C7.3596 26.7868 7.36357 26.7826 7.36758 26.7784C7.3716 26.7741 7.37564 26.7699 7.37973 26.7655C7.38382 26.7612 7.38794 26.7569 7.39209 26.7525C7.39625 26.7481 7.40045 26.7436 7.40468 26.7392C7.40891 26.7347 7.41317 26.7302 7.41748 26.7256C7.42178 26.7211 7.42612 26.7165 7.43049 26.7119C7.43487 26.7072 7.43928 26.7026 7.44372 26.6979C7.44817 26.6932 7.45265 26.6884 7.45717 26.6837C7.46169 26.6789 7.46624 26.6741 7.47083 26.6692C7.47542 26.6644 7.48005 26.6595 7.48471 26.6545C7.48937 26.6496 7.49407 26.6447 7.4988 26.6396C7.50353 26.6346 7.5083 26.6296 7.5131 26.6245C7.5179 26.6194 7.52274 26.6143 7.52761 26.6092C7.53248 26.604 7.53739 26.5988 7.54234 26.5936C7.54728 26.5884 7.55226 26.5831 7.55727 26.5778C7.56228 26.5725 7.56733 26.5672 7.57242 26.5618C7.5775 26.5564 7.58262 26.551 7.58777 26.5456C7.59292 26.5401 7.59811 26.5346 7.60333 26.5291C7.60855 26.5236 7.61381 26.518 7.6191 26.5124C7.62439 26.5069 7.62972 26.5012 7.63508 26.4956C7.64044 26.4899 7.64583 26.4842 7.65126 26.4784C7.65669 26.4727 7.66216 26.4669 7.66765 26.4611C7.67315 26.4553 7.67868 26.4495 7.68425 26.4436C7.68981 26.4377 7.69541 26.4318 7.70105 26.4258C7.70668 26.4198 7.71235 26.4139 7.71805 26.4078C7.72375 26.4018 7.72949 26.3957 7.73526 26.3896C7.74102 26.3835 7.74683 26.3774 7.75266 26.3712C7.7585 26.3651 7.76437 26.3589 7.77027 26.3526C7.77618 26.3464 7.78211 26.3401 7.78808 26.3338C7.79406 26.3275 7.80006 26.3211 7.8061 26.3147C7.81213 26.3084 7.8182 26.3019 7.82431 26.2955C7.83041 26.289 7.83655 26.2825 7.84272 26.276C7.84889 26.2695 7.85509 26.2629 7.86133 26.2563C7.86756 26.2497 7.87383 26.2431 7.88013 26.2365C7.88643 26.2298 7.89277 26.2231 7.89914 26.2164C7.9055 26.2096 7.9119 26.2029 7.91834 26.1961C7.92477 26.1893 7.93123 26.1824 7.93773 26.1756C7.94423 26.1687 7.95076 26.1618 7.95732 26.1548C7.96388 26.1479 7.97048 26.1409 7.97711 26.1339C7.98373 26.1269 7.99039 26.1199 7.99708 26.1128C8.00378 26.1057 8.0105 26.0986 8.01726 26.0915C8.02401 26.0843 8.0308 26.0771 8.03762 26.0699C8.04444 26.0627 8.05129 26.0555 8.05818 26.0482C8.06506 26.0409 8.07197 26.0336 8.07892 26.0263C8.08587 26.0189 8.09285 26.0115 8.09986 26.0041C8.10687 25.9967 8.11391 25.9893 8.12098 25.9818C8.12806 25.9743 8.13516 25.9668 8.1423 25.9593C8.14944 25.9517 8.1566 25.9441 8.1638 25.9365C8.171 25.9289 8.17823 25.9213 8.18549 25.9136C8.19276 25.9059 8.20005 25.8982 8.20737 25.8905C8.2147 25.8827 8.22205 25.8749 8.22944 25.8671C8.23682 25.8593 8.24424 25.8515 8.25169 25.8436C8.25913 25.8357 8.26661 25.8278 8.27412 25.8199C8.28163 25.8119 8.28917 25.804 8.29674 25.796C8.30431 25.788 8.31191 25.7799 8.31954 25.7719C8.32717 25.7638 8.33483 25.7557 8.34253 25.7476C8.35022 25.7394 8.35794 25.7313 8.36569 25.7231C8.37345 25.7149 8.38123 25.7066 8.38904 25.6984C8.39686 25.6901 8.4047 25.6818 8.41257 25.6735C8.42045 25.6652 8.42835 25.6568 8.43628 25.6484C8.44422 25.64 8.45218 25.6316 8.46017 25.6232C8.46817 25.6147 8.47619 25.6062 8.48424 25.5977C8.49229 25.5892 8.50038 25.5807 8.50849 25.5721C8.5166 25.5635 8.52474 25.5549 8.53291 25.5463C8.54108 25.5376 8.54928 25.5289 8.55751 25.5202C8.56574 25.5115 8.574 25.5028 8.58229 25.494C8.59058 25.4853 8.59889 25.4765 8.60724 25.4677C8.61559 25.4588 8.62396 25.45 8.63237 25.4411C8.64077 25.4322 8.64921 25.4233 8.65767 25.4143C8.66613 25.4054 8.67462 25.3964 8.68314 25.3874C8.69166 25.3784 8.70021 25.3694 8.70879 25.3603C8.71737 25.3512 8.72598 25.3421 8.73461 25.333C8.74325 25.3239 8.75191 25.3147 8.7606 25.3055C8.76929 25.2963 8.77801 25.2871 8.78676 25.2778C8.79551 25.2686 8.80429 25.2593 8.8131 25.25C8.8219 25.2407 8.83073 25.2314 8.8396 25.222C8.84846 25.2126 8.85735 25.2032 8.86627 25.1938C8.87518 25.1844 8.88413 25.1749 8.8931 25.1654C8.90208 25.1559 8.91108 25.1464 8.92011 25.1369C8.92914 25.1273 8.9382 25.1177 8.94728 25.1081C8.95637 25.0985 8.96548 25.0889 8.97462 25.0792C8.98376 25.0696 8.99293 25.0599 9.00212 25.0501C9.01132 25.0404 9.02054 25.0307 9.02979 25.0209C9.03904 25.0111 9.04832 25.0013 9.05762 24.9915C9.06693 24.9816 9.07626 24.9718 9.08562 24.9619C9.09498 24.952 9.10436 24.942 9.11378 24.9321C9.12319 24.9221 9.13263 24.9122 9.1421 24.9021C9.15156 24.8921 9.16106 24.8821 9.17058 24.872C9.1801 24.862 9.18965 24.8519 9.19922 24.8417C9.20879 24.8316 9.21839 24.8215 9.22802 24.8113C9.23765 24.8011 9.2473 24.7909 9.25698 24.7807C9.26666 24.7704 9.27637 24.7602 9.2861 24.7499C9.29584 24.7396 9.3056 24.7293 9.31538 24.7189C9.32517 24.7086 9.33498 24.6982 9.34482 24.6878C9.35465 24.6774 9.36452 24.667 9.37441 24.6565C9.3843 24.6461 9.39421 24.6356 9.40416 24.6251C9.4141 24.6146 9.42406 24.604 9.43406 24.5934C9.44405 24.5829 9.45407 24.5723 9.46412 24.5617C9.47416 24.551 9.48423 24.5404 9.49433 24.5297C9.50442 24.519 9.51454 24.5083 9.52469 24.4976C9.53484 24.4869 9.54501 24.4761 9.55521 24.4654C9.56541 24.4546 9.57563 24.4438 9.58588 24.4329C9.59613 24.4221 9.6064 24.4112 9.6167 24.4003C9.627 24.3895 9.63732 24.3785 9.64767 24.3676C9.65802 24.3567 9.66839 24.3457 9.67879 24.3347C9.68919 24.3237 9.69961 24.3127 9.71006 24.3016C9.72051 24.2906 9.73098 24.2795 9.74148 24.2684C9.75197 24.2573 9.7625 24.2462 9.77304 24.235C9.78359 24.2239 9.79416 24.2127 9.80475 24.2015C9.81535 24.1903 9.82597 24.1791 9.83661 24.1678C9.84726 24.1566 9.85793 24.1453 9.86862 24.134C9.87931 24.1227 9.89003 24.1113 9.90077 24.1C9.91151 24.0886 9.92228 24.0772 9.93307 24.0658C9.94385 24.0544 9.95467 24.043 9.9655 24.0315C9.97634 24.0201 9.9872 24.0086 9.99809 23.9971C10.009 23.9856 10.0199 23.974 10.0308 23.9625C10.0417 23.9509 10.0527 23.9393 10.0637 23.9277C10.0747 23.9161 10.0857 23.9045 10.0967 23.8928C10.1077 23.8812 10.1188 23.8695 10.1298 23.8578C10.1409 23.8461 10.152 23.8344 10.1631 23.8226C10.1742 23.8108 10.1854 23.7991 10.1965 23.7873C10.2077 23.7754 10.2189 23.7636 10.2301 23.7518C10.2413 23.7399 10.2526 23.728 10.2638 23.7161C10.2751 23.7042 10.2863 23.6923 10.2977 23.6803C10.309 23.6684 10.3203 23.6564 10.3316 23.6444C10.343 23.6324 10.3543 23.6204 10.3657 23.6084C10.3771 23.5963 10.3885 23.5842 10.4 23.5721C10.4114 23.5601 10.4229 23.5479 10.4344 23.5358C10.4458 23.5237 10.4574 23.5115 10.4689 23.4993C10.4804 23.4871 10.492 23.4749 10.5035 23.4627C10.5151 23.4504 10.5267 23.4382 10.5383 23.4259C10.5499 23.4136 10.5616 23.4013 10.5732 23.389C10.5849 23.3767 10.5966 23.3643 10.6083 23.3519C10.62 23.3396 10.6317 23.3272 10.6434 23.3147C10.6552 23.3023 10.667 23.2899 10.6787 23.2774C10.6905 23.2649 10.7023 23.2525 10.7142 23.24C10.726 23.2274 10.7379 23.2149 10.7497 23.2024C10.7616 23.1898 10.7735 23.1772 10.7854 23.1646C10.7973 23.152 10.8093 23.1394 10.8212 23.1268C10.8332 23.1141 10.8452 23.1014 10.8572 23.0888C10.8692 23.0761 10.8812 23.0634 10.8932 23.0506C10.9053 23.0379 10.9173 23.0251 10.9294 23.0124C10.9415 22.9996 10.9536 22.9868 10.9657 22.974C10.9779 22.9611 10.99 22.9483 11.0022 22.9354C11.0144 22.9226 11.0265 22.9097 11.0387 22.8968C11.051 22.8839 11.0632 22.8709 11.0754 22.858C11.0877 22.845 11.0999 22.8321 11.1122 22.8191C11.1245 22.8061 11.1368 22.7931 11.1492 22.78C11.1615 22.767 11.1738 22.7539 11.1862 22.7409C11.1986 22.7278 11.211 22.7147 11.2234 22.7016C11.2358 22.6884 11.2482 22.6753 11.2607 22.6621C11.2731 22.649 11.2856 22.6358 11.2981 22.6226C11.3106 22.6094 11.3231 22.5962 11.3356 22.5829C11.3481 22.5697 11.3607 22.5564 11.3732 22.5431C11.3858 22.5298 11.3984 22.5165 11.411 22.5032C11.4236 22.4899 11.4362 22.4765 11.4488 22.4632C11.4615 22.4498 11.4742 22.4364 11.4868 22.423C11.4995 22.4096 11.5122 22.3962 11.5249 22.3827C11.5376 22.3693 11.5504 22.3558 11.5631 22.3423C11.5759 22.3288 11.5887 22.3153 11.6015 22.3018C11.6143 22.2883 11.6271 22.2747 11.6399 22.2612C11.6527 22.2476 11.6656 22.234 11.6784 22.2204C11.6913 22.2068 11.7042 22.1932 11.7171 22.1795C11.73 22.1659 11.7429 22.1522 11.7559 22.1385C11.7688 22.1248 11.7818 22.1111 11.7948 22.0974C11.8077 22.0837 11.8207 22.07 11.8337 22.0562C11.8468 22.0424 11.8598 22.0287 11.8728 22.0149C11.8859 22.0011 11.899 21.9873 11.912 21.9734C11.9251 21.9596 11.9382 21.9457 11.9513 21.9319C11.9645 21.918 11.9776 21.9041 11.9908 21.8902C12.0039 21.8763 12.0171 21.8623 12.0303 21.8484C12.0435 21.8344 12.0567 21.8205 12.0699 21.8065C12.0831 21.7925 12.0964 21.7785 12.1096 21.7645C12.1229 21.7505 12.1362 21.7364 12.1495 21.7224C12.1628 21.7083 12.1761 21.6942 12.1894 21.6801C12.2027 21.6661 12.2161 21.6519 12.2294 21.6378C12.2428 21.6237 12.2562 21.6095 12.2696 21.5954C12.283 21.5812 12.2964 21.567 12.3098 21.5528C12.3233 21.5386 12.3367 21.5244 12.3502 21.5102C12.3636 21.4959 12.3771 21.4817 12.3906 21.4674C12.4041 21.4532 12.4176 21.4389 12.4311 21.4246C12.4447 21.4103 12.4582 21.3959 12.4718 21.3816C12.4853 21.3673 12.4989 21.3529 12.5125 21.3385C12.5261 21.3242 12.5397 21.3098 12.5533 21.2954C12.567 21.281 12.5806 21.2665 12.5943 21.2521C12.6079 21.2376 12.6216 21.2232 12.6353 21.2087C12.649 21.1942 12.6627 21.1797 12.6764 21.1652C12.6901 21.1507 12.7039 21.1362 12.7176 21.1217C12.7314 21.1071 12.7451 21.0926 12.7589 21.078C12.7727 21.0634 12.7865 21.0488 12.8003 21.0342C12.8141 21.0196 12.8279 21.005 12.8418 20.9904C12.8556 20.9757 12.8695 20.9611 12.8834 20.9464C12.8972 20.9317 12.9111 20.9171 12.925 20.9024C12.9389 20.8876 12.9529 20.8729 12.9668 20.8582C12.9807 20.8435 12.9947 20.8287 13.0086 20.814C13.0226 20.7992 13.0366 20.7844 13.0506 20.7696C13.0646 20.7548 13.0786 20.74 13.0926 20.7252C13.1066 20.7104 13.1207 20.6955 13.1347 20.6807C13.1488 20.6658 13.1628 20.6509 13.1769 20.636C13.191 20.6212 13.2051 20.6062 13.2192 20.5913C13.2333 20.5764 13.2474 20.5615 13.2616 20.5465C13.2757 20.5316 13.2898 20.5166 13.304 20.5016C13.3182 20.4867 13.3324 20.4717 13.3465 20.4567C13.3607 20.4417 13.3749 20.4266 13.3892 20.4116C13.4034 20.3966 13.4176 20.3815 13.4319 20.3665C13.4461 20.3514 13.4604 20.3363 13.4747 20.3212C13.4889 20.3061 13.5032 20.291 13.5175 20.2759C13.5318 20.2608 13.5461 20.2456 13.5605 20.2305C13.5748 20.2153 13.5891 20.2002 13.6035 20.185C13.6178 20.1698 13.6322 20.1546 13.6466 20.1394C13.661 20.1242 13.6754 20.109 13.6898 20.0938C13.7042 20.0785 13.7186 20.0633 13.733 20.048C13.7475 20.0328 13.7619 20.0175 13.7764 20.0022C13.7908 19.9869 13.8053 19.9716 13.8198 19.9563C13.8343 19.941 13.8488 19.9257 13.8633 19.9103C13.8778 19.895 13.8923 19.8796 13.9068 19.8643C13.9214 19.8489 13.9359 19.8335 13.9505 19.8181C13.965 19.8027 13.9796 19.7873 13.9942 19.7719C14.0088 19.7565 14.0234 19.741 14.038 19.7256C14.0526 19.7102 14.0672 19.6947 14.0818 19.6792C14.0965 19.6638 14.1111 19.6483 14.1258 19.6328C14.1404 19.6173 14.1551 19.6018 14.1698 19.5863C14.1845 19.5707 14.1991 19.5552 14.2138 19.5397C14.2285 19.5241 14.2433 19.5086 14.258 19.493C14.2727 19.4774 14.2874 19.4618 14.3022 19.4462C14.3169 19.4306 14.3317 19.415 14.3465 19.3994C14.3612 19.3838 14.376 19.3682 14.3908 19.3525C14.4056 19.3369 14.4204 19.3212 14.4352 19.3056C14.45 19.2899 14.4649 19.2742 14.4797 19.2586C14.4945 19.2429 14.5094 19.2272 14.5243 19.2115C14.5391 19.1957 14.554 19.18 14.5689 19.1643C14.5837 19.1486 14.5986 19.1328 14.6135 19.117C14.6284 19.1013 14.6434 19.0855 14.6583 19.0697C14.6732 19.054 14.6881 19.0382 14.7031 19.0224C14.718 19.0066 14.733 18.9908 14.7479 18.9749C14.7629 18.9591 14.7779 18.9433 14.7929 18.9274C14.8079 18.9116 14.8228 18.8957 14.8379 18.8799C14.8529 18.864 14.8679 18.8481 14.8829 18.8323C14.8979 18.8164 14.913 18.8005 14.928 18.7846C14.943 18.7687 14.9581 18.7527 14.9732 18.7368C14.9882 18.7209 15.0033 18.7049 15.0184 18.689C15.0335 18.673 15.0486 18.6571 15.0637 18.6411C15.0788 18.6252 15.0939 18.6092 15.109 18.5932C15.1241 18.5772 15.1393 18.5612 15.1544 18.5452C15.1695 18.5292 15.1847 18.5132 15.1998 18.4971C15.215 18.4811 15.2302 18.4651 15.2453 18.449C15.2605 18.433 15.2757 18.4169 15.2909 18.4009C15.3061 18.3848 15.3213 18.3687 15.3365 18.3526C15.3517 18.3365 15.3669 18.3205 15.3822 18.3043C15.3974 18.2882 15.4126 18.2721 15.4279 18.256C15.4431 18.2399 15.4584 18.2238 15.4737 18.2076C15.4889 18.1915 15.5042 18.1753 15.5195 18.1592C15.5348 18.143 15.55 18.1269 15.5653 18.1107C15.5806 18.0945 15.596 18.0783 15.6113 18.0621C15.6266 18.0459 15.6419 18.0297 15.6572 18.0135C15.6726 17.9973 15.6879 17.9811 15.7032 17.9649C15.7186 17.9487 15.7339 17.9324 15.7493 17.9162C15.7647 17.8999 15.78 17.8837 15.7954 17.8674C15.8108 17.8512 15.8262 17.8349 15.8416 17.8186C15.857 17.8024 15.8724 17.7861 15.8878 17.7698C15.9032 17.7535 15.9186 17.7372 15.934 17.7209C15.9494 17.7046 15.9649 17.6883 15.9803 17.6719C15.9957 17.6556 16.0112 17.6393 16.0266 17.623C16.0421 17.6066 16.0575 17.5903 16.073 17.5739C16.0885 17.5576 16.1039 17.5412 16.1194 17.5248C16.1349 17.5085 16.1504 17.4921 16.1659 17.4757C16.1814 17.4593 16.1969 17.4429 16.2124 17.4266C16.2279 17.4102 16.2434 17.3938 16.2589 17.3773C16.2744 17.3609 16.29 17.3445 16.3055 17.3281C16.321 17.3117 16.3366 17.2952 16.3521 17.2788C16.3677 17.2624 16.3832 17.2459 16.3988 17.2295C16.4143 17.213 16.4299 17.1966 16.4455 17.1801C16.461 17.1637 16.4766 17.1472 16.4922 17.1307C16.5078 17.1142 16.5234 17.0977 16.539 17.0813C16.5545 17.0648 16.5701 17.0483 16.5858 17.0318C16.6014 17.0153 16.617 16.9988 16.6326 16.9823C16.6482 16.9657 16.6638 16.9492 16.6795 16.9327C16.6951 16.9162 16.7107 16.8996 16.7264 16.8831C16.742 16.8666 16.7576 16.85 16.7733 16.8335C16.7889 16.8169 16.8046 16.8004 16.8203 16.7838C16.8359 16.7673 16.8516 16.7507 16.8673 16.7341C16.8829 16.7176 16.8986 16.701 16.9143 16.6844C16.93 16.6678 16.9457 16.6512 16.9613 16.6347C16.977 16.6181 16.9927 16.6015 17.0084 16.5849C17.0241 16.5683 17.0398 16.5517 17.0555 16.5351C17.0713 16.5184 17.087 16.5018 17.1027 16.4852C17.1184 16.4686 17.1341 16.452 17.1499 16.4353C17.1656 16.4187 17.1813 16.4021 17.1971 16.3854C17.2128 16.3688 17.2285 16.3521 17.2443 16.3355C17.26 16.3189 17.2758 16.3022 17.2915 16.2855C17.3073 16.2689 17.323 16.2522 17.3388 16.2356C17.3546 16.2189 17.3703 16.2022 17.3861 16.1856C17.4019 16.1689 17.4176 16.1522 17.4334 16.1355C17.4492 16.1188 17.465 16.1022 17.4808 16.0855C17.4965 16.0688 17.5123 16.0521 17.5281 16.0354C17.5439 16.0187 17.5597 16.002 17.5755 15.9853C17.5913 15.9686 17.6071 15.9519 17.6229 15.9352C17.6387 15.9185 17.6545 15.9017 17.6703 15.885C17.6862 15.8683 17.702 15.8516 17.7178 15.8349C17.7336 15.8181 17.7494 15.8014 17.7652 15.7847C17.7811 15.7679 17.7969 15.7512 17.8127 15.7345C17.8286 15.7177 17.8444 15.701 17.8602 15.6842C17.8761 15.6675 17.8919 15.6508 17.9077 15.634C17.9236 15.6173 17.9394 15.6005 17.9553 15.5838C17.9711 15.567 17.987 15.5502 18.0028 15.5335C18.0187 15.5167 18.0345 15.5 18.0504 15.4832C18.0662 15.4664 18.0821 15.4497 18.0979 15.4329C18.1138 15.4161 18.1297 15.3994 18.1455 15.3826C18.1614 15.3658 18.1773 15.349 18.1931 15.3323C18.209 15.3155 18.2249 15.2987 18.2407 15.2819C18.2566 15.2651 18.2725 15.2483 18.2884 15.2316C18.3042 15.2148 18.3201 15.198 18.336 15.1812C18.3519 15.1644 18.3678 15.1476 18.3836 15.1308C18.3995 15.114 18.4154 15.0972 18.4313 15.0804C18.4472 15.0637 18.4631 15.0469 18.4789 15.0301C18.4948 15.0133 18.5107 14.9965 18.5266 14.9797C18.5425 14.9629 18.5584 14.9461 18.5743 14.9293C18.5902 14.9124 18.6061 14.8956 18.622 14.8788C18.6379 14.862 18.6538 14.8452 18.6697 14.8284C18.6855 14.8116 18.7014 14.7948 18.7173 14.778C18.7332 14.7612 18.7491 14.7444 18.765 14.7276C18.7809 14.7108 18.7968 14.6939 18.8127 14.6771C18.8286 14.6603 18.8445 14.6435 18.8604 14.6267C18.8763 14.6099 18.8922 14.5931 18.9081 14.5763C18.924 14.5594 18.9399 14.5426 18.9558 14.5258C18.9717 14.509 18.9876 14.4922 19.0036 14.4754C19.0195 14.4586 19.0354 14.4418 19.0513 14.4249C19.0672 14.4081 19.0831 14.3913 19.099 14.3745C19.1149 14.3577 19.1308 14.3409 19.1467 14.3241C19.1626 14.3072 19.1785 14.2904 19.1944 14.2736C19.2103 14.2568 19.2262 14.24 19.2421 14.2232C19.258 14.2064 19.2739 14.1896 19.2898 14.1728C19.3057 14.1559 19.3216 14.1391 19.3375 14.1223C19.3534 14.1055 19.3693 14.0887 19.3852 14.0719C19.401 14.0551 19.4169 14.0383 19.4328 14.0215C19.4487 14.0047 19.4646 13.9879 19.4805 13.9711C19.4964 13.9543 19.5123 13.9375 19.5282 13.9207C19.5441 13.9039 19.56 13.8871 19.5758 13.8703C19.5917 13.8535 19.6076 13.8367 19.6235 13.8199C19.6394 13.8031 19.6553 13.7863 19.6712 13.7695C19.687 13.7527 19.7029 13.7359 19.7188 13.7191C19.7347 13.7024 19.7505 13.6856 19.7664 13.6688C19.7823 13.652 19.7982 13.6352 19.814 13.6184C19.8299 13.6017 19.8458 13.5849 19.8616 13.5681C19.8775 13.5513 19.8934 13.5345 19.9092 13.5178C19.9251 13.501 19.941 13.4842 19.9568 13.4675C19.9727 13.4507 19.9885 13.4339 20.0044 13.4172C20.0202 13.4004 20.0361 13.3836 20.0519 13.3669C20.0678 13.3501 20.0836 13.3334 20.0995 13.3166C20.1153 13.2999 20.1312 13.2831 20.147 13.2664C20.1629 13.2496 20.1787 13.2329 20.1945 13.2161C20.2104 13.1994 20.2262 13.1827 20.242 13.1659C20.2578 13.1492 20.2737 13.1324 20.2895 13.1157C20.3053 13.099 20.3211 13.0823 20.337 13.0655C20.3528 13.0488 20.3686 13.0321 20.3844 13.0154C20.4002 12.9987 20.416 12.982 20.4318 12.9652C20.4476 12.9485 20.4634 12.9318 20.4792 12.9151C20.495 12.8984 20.5108 12.8817 20.5266 12.865C20.5424 12.8483 20.5582 12.8316 20.574 12.815C20.5897 12.7983 20.6055 12.7816 20.6213 12.7649C20.6371 12.7482 20.6528 12.7316 20.6686 12.7149C20.6844 12.6982 20.7001 12.6815 20.7159 12.6649C20.7316 12.6482 20.7474 12.6316 20.7632 12.6149C20.7789 12.5983 20.7947 12.5816 20.8104 12.565C20.8261 12.5483 20.8419 12.5317 20.8576 12.515C20.8733 12.4984 20.8891 12.4818 20.9048 12.4651C20.9205 12.4485 20.9363 12.4319 20.952 12.4153C20.9677 12.3987 20.9834 12.382 20.9991 12.3654C21.0148 12.3488 21.0305 12.3322 21.0462 12.3156C21.0619 12.299 21.0776 12.2824 21.0933 12.2658C21.109 12.2493 21.1247 12.2327 21.1403 12.2161C21.156 12.1995 21.1717 12.183 21.1874 12.1664C21.203 12.1498 21.2187 12.1333 21.2343 12.1167C21.25 12.1001 21.2657 12.0836 21.2813 12.0671C21.297 12.0505 21.3126 12.034 21.3282 12.0174C21.3439 12.0009 21.3595 11.9844 21.3751 11.9679C21.3907 11.9513 21.4064 11.9348 21.422 11.9183C21.4376 11.9018 21.4532 11.8853 21.4688 11.8688C21.4844 11.8523 21.5 11.8358 21.5156 11.8193C21.5312 11.8028 21.5468 11.7864 21.5624 11.7699C21.5779 11.7534 21.5935 11.737 21.6091 11.7205C21.6246 11.704 21.6402 11.6876 21.6558 11.6711C21.6713 11.6547 21.6869 11.6383 21.7024 11.6218C21.7179 11.6054 21.7335 11.589 21.749 11.5725C21.7645 11.5561 21.7801 11.5397 21.7956 11.5233C21.8111 11.5069 21.8266 11.4905 21.8421 11.4741C21.8576 11.4577 21.8731 11.4413 21.8886 11.425C21.9041 11.4086 21.9196 11.3922 21.935 11.3759C21.9505 11.3595 21.966 11.3431 21.9814 11.3268C21.9969 11.3104 22.0124 11.2941 22.0278 11.2778C22.0432 11.2614 22.0587 11.2451 22.0741 11.2288C22.0896 11.2125 22.105 11.1962 22.1204 11.1799C22.1358 11.1636 22.1512 11.1473 22.1666 11.131C22.182 11.1147 22.1974 11.0984 22.2128 11.0821C22.2282 11.0659 22.2436 11.0496 22.259 11.0334C22.2743 11.0171 22.2897 11.0009 22.3051 10.9846C22.3204 10.9684 22.3358 10.9522 22.3511 10.9359C22.3664 10.9197 22.3818 10.9035 22.3971 10.8873C22.4124 10.8711 22.4277 10.8549 22.4431 10.8387C22.4584 10.8225 22.4737 10.8063 22.489 10.7902C22.5043 10.774 22.5195 10.7578 22.5348 10.7417C22.5501 10.7255 22.5654 10.7094 22.5806 10.6933C22.5959 10.6771 22.6111 10.661 22.6264 10.6449C22.6416 10.6288 22.6568 10.6127 22.6721 10.5966C22.6873 10.5805 22.7025 10.5644 22.7177 10.5483C22.7329 10.5322 22.7481 10.5161 22.7633 10.5001C22.7785 10.484 22.7937 10.468 22.8089 10.4519C22.824 10.4359 22.8392 10.4199 22.8543 10.4038C22.8695 10.3878 22.8846 10.3718 22.8998 10.3558C22.9149 10.3398 22.93 10.3238 22.9452 10.3078C22.9603 10.2918 22.9754 10.2759 22.9905 10.2599C23.0056 10.2439 23.0207 10.228 23.0357 10.212C23.0508 10.1961 23.0659 10.1802 23.0809 10.1642C23.096 10.1483 23.1111 10.1324 23.1261 10.1165C23.1411 10.1006 23.1562 10.0847 23.1712 10.0688C23.1862 10.053 23.2012 10.0371 23.2162 10.0212C23.2312 10.0054 23.2462 9.98952 23.2612 9.97368C23.2762 9.95785 23.2911 9.94202 23.3061 9.9262C23.321 9.91039 23.336 9.89458 23.3509 9.87879C23.3659 9.86299 23.3808 9.84721 23.3957 9.83144C23.4106 9.81566 23.4255 9.7999 23.4404 9.78415C23.4553 9.7684 23.4702 9.75266 23.4851 9.73694C23.5 9.72121 23.5148 9.70549 23.5297 9.68979C23.5445 9.67408 23.5594 9.65839 23.5742 9.64271C23.589 9.62703 23.6039 9.61136 23.6187 9.5957C23.6335 9.58004 23.6483 9.56439 23.6631 9.54876C23.6779 9.53312 23.6926 9.5175 23.7074 9.50189C23.7222 9.48628 23.7369 9.47068 23.7517 9.45509C23.7664 9.43951 23.7811 9.42393 23.7958 9.40837C23.8106 9.39281 23.8253 9.37726 23.84 9.36172C23.8547 9.34618 23.8693 9.33065 23.884 9.31514C23.8987 9.29963 23.9133 9.28413 23.928 9.26864C23.9426 9.25315 23.9573 9.23768 23.9719 9.22221C23.9865 9.20675 24.0011 9.1913 24.0157 9.17586C24.0303 9.16042 24.0449 9.145 24.0595 9.12959C24.0741 9.11417 24.0887 9.09877 24.1032 9.08339C24.1178 9.068 24.1323 9.05263 24.1468 9.03727C24.1614 9.02191 24.1759 9.00656 24.1904 8.99123C24.2049 8.9759 24.2194 8.96057 24.2338 8.94527C24.2483 8.92996 24.2628 8.91467 24.2772 8.89939C24.2917 8.88411 24.3061 8.86884 24.3205 8.85359C24.335 8.83834 24.3494 8.8231 24.3638 8.80787C24.3782 8.79264 24.3926 8.77743 24.4069 8.76223C24.4213 8.74704 24.4357 8.73185 24.45 8.71668C24.4644 8.70151 24.4787 8.68636 24.493 8.67121C24.5074 8.65607 24.5217 8.64094 24.536 8.62583C24.5502 8.61072 24.5645 8.59562 24.5788 8.58053C24.5931 8.56545 24.6073 8.55037 24.6216 8.53532C24.6358 8.52026 24.65 8.50522 24.6642 8.49019C24.6785 8.47516 24.6927 8.46015 24.7068 8.44515C24.721 8.43016 24.7352 8.41517 24.7493 8.4002C24.7635 8.38523 24.7776 8.37028 24.7918 8.35534C24.8059 8.3404 24.82 8.32548 24.8341 8.31057C24.8482 8.29566 24.8623 8.28077 24.8764 8.26589C24.8905 8.25101 24.9045 8.23614 24.9186 8.2213C24.9326 8.20645 24.9466 8.19161 24.9606 8.1768C24.9747 8.16198 24.9887 8.14718 25.0026 8.13239C25.0166 8.1176 25.0306 8.10283 25.0446 8.08807C25.0585 8.07332 25.0725 8.05858 25.0864 8.04385C25.1003 8.02913 25.1142 8.01442 25.1281 7.99973C25.142 7.98504 25.1559 7.97036 25.1698 7.9557C25.1836 7.94104 25.1975 7.92639 25.2113 7.91176C25.2251 7.89713 25.239 7.88252 25.2528 7.86793C25.2666 7.85333 25.2804 7.83875 25.2941 7.82418C25.3079 7.80962 25.3217 7.79507 25.3354 7.78054C25.3492 7.76601 25.3629 7.7515 25.3766 7.737C25.3903 7.7225 25.404 7.70802 25.4177 7.69356C25.4314 7.67909 25.445 7.66464 25.4587 7.65021C25.4723 7.63578 25.486 7.62136 25.4996 7.60697C25.5132 7.59257 25.5268 7.57819 25.5404 7.56383C25.554 7.54946 25.5675 7.53512 25.5811 7.52079C25.5946 7.50646 25.6082 7.49215 25.6217 7.47785C25.6352 7.46356 25.6487 7.44928 25.6622 7.43502C25.6757 7.42076 25.6892 7.40652 25.7026 7.39229C25.7161 7.37807 25.7295 7.36386 25.7429 7.34967C25.7563 7.33548 25.7698 7.32131 25.7831 7.30715C25.7965 7.293 25.8099 7.27886 25.8232 7.26474C25.8366 7.25062 25.8499 7.23652 25.8633 7.22244C25.8766 7.20836 25.8899 7.19429 25.9032 7.18024C25.9164 7.1662 25.9297 7.15217 25.943 7.13816C25.9562 7.12415 25.9695 7.11016 25.9827 7.09618C25.9959 7.08221 26.0091 7.06825 26.0223 7.05432C26.0354 7.04038 26.0486 7.02646 26.0618 7.01256C26.0749 6.99866 26.088 6.98478 26.1011 6.97092L25.0383 5.96566C25.0251 5.97952 25.012 5.9934 24.9989 6.00731C24.9857 6.0212 24.9726 6.03512 24.9594 6.04906C24.9462 6.063 24.933 6.07695 24.9198 6.09093C24.9066 6.1049 24.8933 6.11889 24.8801 6.1329C24.8668 6.14691 24.8536 6.16094 24.8403 6.17499C24.827 6.18904 24.8137 6.2031 24.8004 6.21718C24.7871 6.23127 24.7737 6.24537 24.7604 6.25949C24.747 6.2736 24.7336 6.28774 24.7203 6.3019C24.7069 6.31605 24.6935 6.33022 24.68 6.34441C24.6666 6.3586 24.6532 6.37281 24.6397 6.38704C24.6263 6.40126 24.6128 6.4155 24.5993 6.42976C24.5858 6.44402 24.5723 6.4583 24.5588 6.4726C24.5453 6.48689 24.5318 6.5012 24.5182 6.51553C24.5046 6.52986 24.4911 6.54421 24.4775 6.55857C24.4639 6.57293 24.4503 6.58731 24.4367 6.60171C24.4231 6.61611 24.4094 6.63052 24.3958 6.64495C24.3821 6.65939 24.3685 6.67383 24.3548 6.6883C24.3411 6.70276 24.3274 6.71724 24.3137 6.73174C24.3 6.74624 24.2863 6.76075 24.2725 6.77529C24.2588 6.78982 24.245 6.80437 24.2313 6.81893C24.2175 6.83349 24.2037 6.84807 24.1899 6.86267C24.1761 6.87727 24.1623 6.89188 24.1484 6.90651C24.1346 6.92114 24.1207 6.93578 24.1069 6.95044C24.093 6.9651 24.0791 6.97978 24.0652 6.99447C24.0513 7.00917 24.0374 7.02387 24.0235 7.0386C24.0096 7.05332 23.9956 7.06806 23.9817 7.08282C23.9677 7.09757 23.9537 7.11235 23.9398 7.12713C23.9258 7.14192 23.9118 7.15672 23.8978 7.17154C23.8837 7.18636 23.8697 7.20119 23.8557 7.21604C23.8416 7.23089 23.8276 7.24575 23.8135 7.26063C23.7994 7.27551 23.7853 7.2904 23.7712 7.30531C23.7571 7.32022 23.743 7.33514 23.7289 7.35008C23.7148 7.36502 23.7006 7.37998 23.6865 7.39495C23.6723 7.40992 23.6581 7.4249 23.644 7.4399C23.6298 7.4549 23.6156 7.46991 23.6014 7.48494C23.5871 7.49996 23.5729 7.51501 23.5587 7.53006C23.5444 7.54512 23.5302 7.56019 23.5159 7.57527C23.5016 7.59036 23.4874 7.60546 23.4731 7.62057C23.4588 7.63569 23.4445 7.65082 23.4301 7.66596C23.4158 7.6811 23.4015 7.69626 23.3871 7.71143C23.3728 7.7266 23.3584 7.74178 23.3441 7.75698C23.3297 7.77218 23.3153 7.78739 23.3009 7.80261C23.2865 7.81784 23.2721 7.83308 23.2577 7.84833C23.2432 7.86358 23.2288 7.87885 23.2143 7.89413C23.1999 7.90941 23.1854 7.9247 23.171 7.94001C23.1565 7.95532 23.142 7.97064 23.1275 7.98597C23.113 8.00131 23.0985 8.01665 23.0839 8.03201C23.0694 8.04737 23.0549 8.06275 23.0403 8.07813C23.0258 8.09352 23.0112 8.10892 22.9966 8.12433C22.9821 8.13974 22.9675 8.15517 22.9529 8.1706C22.9383 8.18604 22.9236 8.20149 22.909 8.21696C22.8944 8.23242 22.8798 8.24789 22.8651 8.26338C22.8505 8.27887 22.8358 8.29437 22.8211 8.30989C22.8065 8.3254 22.7918 8.34092 22.7771 8.35646C22.7624 8.372 22.7477 8.38755 22.733 8.40311C22.7182 8.41868 22.7035 8.43425 22.6888 8.44984C22.674 8.46542 22.6593 8.48102 22.6445 8.49663C22.6297 8.51224 22.615 8.52787 22.6002 8.5435C22.5854 8.55914 22.5706 8.57478 22.5558 8.59044C22.541 8.6061 22.5262 8.62177 22.5113 8.63745C22.4965 8.65313 22.4817 8.66883 22.4668 8.68453C22.4519 8.70024 22.4371 8.71595 22.4222 8.73168C22.4073 8.74741 22.3924 8.76315 22.3776 8.77889C22.3627 8.79465 22.3477 8.81041 22.3328 8.82618C22.3179 8.84195 22.303 8.85774 22.288 8.87353C22.2731 8.88932 22.2582 8.90513 22.2432 8.92095C22.2282 8.93676 22.2133 8.95259 22.1983 8.96843C22.1833 8.98427 22.1683 9.00011 22.1533 9.01597C22.1383 9.03183 22.1233 9.0477 22.1083 9.06358C22.0933 9.07946 22.0782 9.09536 22.0632 9.11126C22.0482 9.12716 22.0331 9.14307 22.0181 9.15899C22.003 9.17491 21.9879 9.19085 21.9729 9.20679C21.9578 9.22273 21.9427 9.23869 21.9276 9.25465C21.9125 9.27061 21.8974 9.28658 21.8823 9.30257C21.8672 9.31855 21.852 9.33454 21.8369 9.35055C21.8218 9.36655 21.8066 9.38256 21.7915 9.39858C21.7763 9.41461 21.7611 9.43064 21.746 9.44668C21.7308 9.46272 21.7156 9.47877 21.7004 9.49483C21.6852 9.51089 21.67 9.52696 21.6548 9.54304C21.6396 9.55912 21.6244 9.57521 21.6092 9.59131C21.594 9.6074 21.5787 9.62351 21.5635 9.63963C21.5482 9.65574 21.533 9.67187 21.5177 9.688C21.5025 9.70414 21.4872 9.72028 21.4719 9.73643C21.4567 9.75258 21.4414 9.76875 21.4261 9.78492C21.4108 9.80108 21.3955 9.81726 21.3802 9.83345C21.3649 9.84964 21.3495 9.86583 21.3342 9.88204C21.3189 9.89824 21.3036 9.91445 21.2882 9.93067C21.2729 9.9469 21.2575 9.96313 21.2422 9.97936C21.2268 9.9956 21.2114 10.0118 21.1961 10.0281C21.1807 10.0444 21.1653 10.0606 21.1499 10.0769C21.1345 10.0932 21.1191 10.1094 21.1037 10.1257C21.0883 10.142 21.0729 10.1583 21.0575 10.1746C21.0421 10.1909 21.0267 10.2072 21.0112 10.2235C20.9958 10.2399 20.9804 10.2562 20.9649 10.2725C20.9495 10.2888 20.934 10.3052 20.9186 10.3215C20.9031 10.3379 20.8876 10.3542 20.8721 10.3706C20.8567 10.387 20.8412 10.4033 20.8257 10.4197C20.8102 10.4361 20.7947 10.4525 20.7792 10.4689C20.7637 10.4852 20.7482 10.5016 20.7327 10.5181C20.7172 10.5345 20.7016 10.5509 20.6861 10.5673C20.6706 10.5837 20.6551 10.6001 20.6395 10.6166C20.624 10.633 20.6084 10.6494 20.5929 10.6659C20.5773 10.6823 20.5618 10.6988 20.5462 10.7152C20.5306 10.7317 20.515 10.7482 20.4995 10.7646C20.4839 10.7811 20.4683 10.7976 20.4527 10.8141C20.4371 10.8306 20.4215 10.8471 20.4059 10.8635C20.3903 10.88 20.3747 10.8965 20.3591 10.9131C20.3435 10.9296 20.3279 10.9461 20.3122 10.9626C20.2966 10.9791 20.281 10.9956 20.2653 11.0122C20.2497 11.0287 20.2341 11.0453 20.2184 11.0618C20.2028 11.0783 20.1871 11.0949 20.1715 11.1114C20.1558 11.128 20.1401 11.1446 20.1245 11.1611C20.1088 11.1777 20.0931 11.1943 20.0775 11.2108C20.0618 11.2274 20.0461 11.244 20.0304 11.2606C20.0147 11.2772 19.999 11.2938 19.9833 11.3104C19.9676 11.327 19.9519 11.3436 19.9362 11.3602C19.9205 11.3768 19.9048 11.3934 19.8891 11.41C19.8734 11.4266 19.8576 11.4433 19.8419 11.4599C19.8262 11.4765 19.8105 11.4931 19.7947 11.5098C19.779 11.5264 19.7633 11.5431 19.7475 11.5597C19.7318 11.5763 19.716 11.593 19.7003 11.6097C19.6845 11.6263 19.6688 11.643 19.653 11.6596C19.6372 11.6763 19.6215 11.693 19.6057 11.7096C19.5899 11.7263 19.5742 11.743 19.5584 11.7597C19.5426 11.7763 19.5268 11.793 19.5111 11.8097C19.4953 11.8264 19.4795 11.8431 19.4637 11.8598C19.4479 11.8765 19.4321 11.8932 19.4163 11.9099C19.4005 11.9266 19.3847 11.9433 19.3689 11.96C19.3531 11.9767 19.3373 11.9934 19.3215 12.0101C19.3057 12.0268 19.2899 12.0436 19.2741 12.0603C19.2583 12.077 19.2424 12.0937 19.2266 12.1105C19.2108 12.1272 19.195 12.1439 19.1791 12.1607C19.1633 12.1774 19.1475 12.1941 19.1316 12.2109C19.1158 12.2276 19.1 12.2444 19.0841 12.2611C19.0683 12.2779 19.0525 12.2946 19.0366 12.3114C19.0208 12.3281 19.0049 12.3449 18.9891 12.3616C18.9732 12.3784 18.9574 12.3951 18.9415 12.4119C18.9257 12.4287 18.9098 12.4454 18.8939 12.4622C18.8781 12.479 18.8622 12.4957 18.8464 12.5125C18.8305 12.5293 18.8146 12.5461 18.7988 12.5628C18.7829 12.5796 18.767 12.5964 18.7512 12.6132C18.7353 12.63 18.7194 12.6467 18.7035 12.6635C18.6877 12.6803 18.6718 12.6971 18.6559 12.7139C18.64 12.7307 18.6242 12.7475 18.6083 12.7643C18.5924 12.781 18.5765 12.7978 18.5606 12.8146C18.5447 12.8314 18.5289 12.8482 18.513 12.865C18.4971 12.8818 18.4812 12.8986 18.4653 12.9154C18.4494 12.9322 18.4335 12.949 18.4176 12.9658C18.4017 12.9826 18.3858 12.9994 18.37 13.0162C18.3541 13.033 18.3382 13.0498 18.3223 13.0666C18.3064 13.0835 18.2905 13.1003 18.2746 13.1171C18.2587 13.1339 18.2428 13.1507 18.2269 13.1675C18.211 13.1843 18.1951 13.2011 18.1792 13.2179C18.1633 13.2347 18.1474 13.2516 18.1315 13.2684C18.1156 13.2852 18.0997 13.302 18.0838 13.3188C18.0679 13.3356 18.052 13.3524 18.0361 13.3692C18.0202 13.3861 18.0043 13.4029 17.9884 13.4197C17.9725 13.4365 17.9566 13.4533 17.9407 13.4701C17.9248 13.4869 17.9089 13.5038 17.893 13.5206C17.8771 13.5374 17.8612 13.5542 17.8453 13.571C17.8294 13.5878 17.8135 13.6046 17.7976 13.6214C17.7817 13.6383 17.7658 13.6551 17.7499 13.6719C17.734 13.6887 17.7181 13.7055 17.7022 13.7223C17.6863 13.7391 17.6704 13.7559 17.6545 13.7727C17.6386 13.7895 17.6227 13.8064 17.6068 13.8232C17.5909 13.84 17.575 13.8568 17.5591 13.8736C17.5432 13.8904 17.5273 13.9072 17.5114 13.924C17.4955 13.9408 17.4796 13.9576 17.4637 13.9744C17.4478 13.9912 17.432 14.008 17.4161 14.0248C17.4002 14.0416 17.3843 14.0584 17.3684 14.0752C17.3525 14.092 17.3366 14.1088 17.3208 14.1256C17.3049 14.1424 17.289 14.1592 17.2731 14.1759C17.2572 14.1927 17.2414 14.2095 17.2255 14.2263C17.2096 14.2431 17.1937 14.2599 17.1779 14.2767C17.162 14.2934 17.1461 14.3102 17.1303 14.327C17.1144 14.3438 17.0985 14.3606 17.0827 14.3773C17.0668 14.3941 17.0509 14.4109 17.0351 14.4276C17.0192 14.4444 17.0033 14.4612 16.9875 14.4779C16.9716 14.4947 16.9558 14.5115 16.9399 14.5282C16.9241 14.545 16.9082 14.5617 16.8924 14.5785C16.8765 14.5953 16.8607 14.612 16.8449 14.6288C16.829 14.6455 16.8132 14.6622 16.7973 14.679C16.7815 14.6957 16.7657 14.7125 16.7498 14.7292C16.734 14.7459 16.7182 14.7627 16.7024 14.7794C16.6865 14.7961 16.6707 14.8129 16.6549 14.8296C16.6391 14.8463 16.6233 14.863 16.6075 14.8798C16.5916 14.8965 16.5758 14.9132 16.56 14.9299C16.5442 14.9466 16.5284 14.9633 16.5126 14.98C16.4968 14.9967 16.481 15.0134 16.4652 15.0301C16.4495 15.0468 16.4337 15.0635 16.4179 15.0802C16.4021 15.0969 16.3863 15.1136 16.3705 15.1303C16.3548 15.1469 16.339 15.1636 16.3232 15.1803C16.3074 15.197 16.2917 15.2136 16.2759 15.2303C16.2602 15.247 16.2444 15.2636 16.2286 15.2803C16.2129 15.2969 16.1971 15.3136 16.1814 15.3302C16.1657 15.3469 16.1499 15.3635 16.1342 15.3802C16.1184 15.3968 16.1027 15.4134 16.087 15.4301C16.0712 15.4467 16.0555 15.4633 16.0398 15.48C16.0241 15.4966 16.0084 15.5132 15.9927 15.5298C15.977 15.5464 15.9612 15.563 15.9455 15.5796C15.9298 15.5962 15.9142 15.6128 15.8985 15.6294C15.8828 15.646 15.8671 15.6626 15.8514 15.6792C15.8357 15.6957 15.82 15.7123 15.8044 15.7289C15.7887 15.7455 15.773 15.762 15.7574 15.7786C15.7417 15.7951 15.7261 15.8117 15.7104 15.8282C15.6948 15.8448 15.6791 15.8613 15.6635 15.8779C15.6478 15.8944 15.6322 15.9109 15.6166 15.9274C15.6009 15.944 15.5853 15.9605 15.5697 15.977C15.5541 15.9935 15.5385 16.01 15.5229 16.0265C15.5073 16.043 15.4917 16.0595 15.4761 16.076C15.4605 16.0925 15.4449 16.109 15.4293 16.1254C15.4137 16.1419 15.3981 16.1584 15.3826 16.1749C15.367 16.1913 15.3514 16.2078 15.3359 16.2242C15.3203 16.2407 15.3048 16.2571 15.2892 16.2736C15.2737 16.29 15.2581 16.3064 15.2426 16.3228C15.2271 16.3393 15.2116 16.3557 15.196 16.3721C15.1805 16.3885 15.165 16.4049 15.1495 16.4213C15.134 16.4377 15.1185 16.4541 15.103 16.4705C15.0875 16.4868 15.072 16.5032 15.0565 16.5196C15.0411 16.536 15.0256 16.5523 15.0101 16.5687C14.9947 16.585 14.9792 16.6014 14.9638 16.6177C14.9483 16.634 14.9329 16.6504 14.9174 16.6667C14.902 16.683 14.8866 16.6993 14.8711 16.7156C14.8557 16.7319 14.8403 16.7482 14.8249 16.7645C14.8095 16.7808 14.7941 16.7971 14.7787 16.8134C14.7633 16.8296 14.7479 16.8459 14.7325 16.8622C14.7172 16.8784 14.7018 16.8947 14.6864 16.9109C14.6711 16.9272 14.6557 16.9434 14.6404 16.9596C14.625 16.9758 14.6097 16.9921 14.5943 17.0083C14.579 17.0245 14.5637 17.0407 14.5484 17.0569C14.5331 17.0731 14.5178 17.0893 14.5025 17.1054C14.4872 17.1216 14.4719 17.1378 14.4566 17.1539C14.4413 17.1701 14.426 17.1862 14.4108 17.2024C14.3955 17.2185 14.3803 17.2346 14.365 17.2508C14.3498 17.2669 14.3345 17.283 14.3193 17.2991C14.3041 17.3152 14.2888 17.3313 14.2736 17.3474C14.2584 17.3635 14.2432 17.3795 14.228 17.3956C14.2128 17.4117 14.1976 17.4277 14.1825 17.4438C14.1673 17.4598 14.1521 17.4759 14.137 17.4919C14.1218 17.5079 14.1067 17.5239 14.0915 17.5399C14.0764 17.5559 14.0612 17.5719 14.0461 17.5879C14.031 17.6039 14.0159 17.6199 14.0008 17.6359C13.9857 17.6518 13.9706 17.6678 13.9555 17.6837C13.9404 17.6997 13.9253 17.7156 13.9103 17.7316C13.8952 17.7475 13.8802 17.7634 13.8651 17.7793C13.8501 17.7952 13.835 17.8111 13.82 17.827C13.805 17.8429 13.79 17.8588 13.775 17.8746C13.76 17.8905 13.745 17.9063 13.73 17.9222C13.715 17.938 13.7 17.9539 13.6851 17.9697C13.6701 17.9855 13.6551 18.0013 13.6402 18.0171C13.6253 18.0329 13.6103 18.0487 13.5954 18.0645C13.5805 18.0803 13.5656 18.096 13.5507 18.1118C13.5358 18.1275 13.5209 18.1433 13.506 18.159C13.4911 18.1748 13.4762 18.1905 13.4614 18.2062C13.4465 18.2219 13.4317 18.2376 13.4168 18.2533C13.402 18.269 13.3872 18.2847 13.3724 18.3003C13.3575 18.316 13.3427 18.3316 13.3279 18.3473C13.3131 18.3629 13.2984 18.3786 13.2836 18.3942C13.2688 18.4098 13.2541 18.4254 13.2393 18.441C13.2246 18.4566 13.2098 18.4722 13.1951 18.4877C13.1804 18.5033 13.1657 18.5189 13.151 18.5344C13.1363 18.5499 13.1216 18.5655 13.1069 18.581C13.0922 18.5965 13.0775 18.612 13.0629 18.6275C13.0482 18.643 13.0336 18.6585 13.019 18.674C13.0043 18.6894 12.9897 18.7049 12.9751 18.7203C12.9605 18.7358 12.9459 18.7512 12.9313 18.7666C12.9167 18.7821 12.9022 18.7975 12.8876 18.8129C12.873 18.8283 12.8585 18.8436 12.844 18.859C12.8294 18.8744 12.8149 18.8897 12.8004 18.9051C12.7859 18.9204 12.7714 18.9357 12.7569 18.951C12.7424 18.9664 12.728 18.9817 12.7135 18.9969C12.699 19.0122 12.6846 19.0275 12.6702 19.0428C12.6557 19.058 12.6413 19.0733 12.6269 19.0885C12.6125 19.1037 12.5981 19.119 12.5837 19.1342C12.5693 19.1494 12.555 19.1646 12.5406 19.1797C12.5263 19.1949 12.5119 19.2101 12.4976 19.2252C12.4833 19.2404 12.4689 19.2555 12.4546 19.2706C12.4403 19.2858 12.426 19.3009 12.4118 19.316C12.3975 19.3311 12.3832 19.3461 12.369 19.3612C12.3547 19.3763 12.3405 19.3913 12.3263 19.4064C12.3121 19.4214 12.2979 19.4364 12.2837 19.4514C12.2695 19.4664 12.2553 19.4814 12.2411 19.4964C12.227 19.5114 12.2128 19.5263 12.1987 19.5413C12.1845 19.5562 12.1704 19.5712 12.1563 19.5861C12.1422 19.601 12.1281 19.6159 12.114 19.6308C12.0999 19.6457 12.0859 19.6605 12.0718 19.6754C12.0578 19.6903 12.0437 19.7051 12.0297 19.7199C12.0157 19.7347 12.0017 19.7496 11.9877 19.7644C11.9737 19.7792 11.9597 19.7939 11.9458 19.8087C11.9318 19.8235 11.9178 19.8382 11.9039 19.8529C11.89 19.8677 11.8761 19.8824 11.8622 19.8971C11.8482 19.9118 11.8344 19.9265 11.8205 19.9412C11.8066 19.9558 11.7927 19.9705 11.7789 19.9851C11.7651 19.9998 11.7512 20.0144 11.7374 20.029C11.7236 20.0436 11.7098 20.0582 11.696 20.0727C11.6822 20.0873 11.6685 20.1019 11.6547 20.1164C11.641 20.131 11.6272 20.1455 11.6135 20.16C11.5998 20.1745 11.5861 20.189 11.5724 20.2035C11.5587 20.2179 11.545 20.2324 11.5314 20.2468C11.5177 20.2613 11.5041 20.2757 11.4905 20.2901C11.4768 20.3045 11.4632 20.3189 11.4496 20.3333C11.436 20.3476 11.4225 20.362 11.4089 20.3763C11.3953 20.3907 11.3818 20.405 11.3683 20.4193C11.3547 20.4336 11.3412 20.4479 11.3277 20.4622C11.3142 20.4764 11.3007 20.4907 11.2873 20.5049C11.2738 20.5192 11.2604 20.5334 11.2469 20.5476C11.2335 20.5618 11.2201 20.576 11.2067 20.5901C11.1933 20.6043 11.1799 20.6184 11.1666 20.6326C11.1532 20.6467 11.1399 20.6608 11.1265 20.6749C11.1132 20.689 11.0999 20.7031 11.0866 20.7171C11.0733 20.7312 11.06 20.7452 11.0468 20.7592C11.0335 20.7733 11.0203 20.7873 11.007 20.8012C10.9938 20.8152 10.9806 20.8292 10.9674 20.8431C10.9542 20.8571 10.941 20.871 10.9279 20.8849C10.9147 20.8988 10.9016 20.9127 10.8885 20.9266C10.8753 20.9405 10.8622 20.9543 10.8492 20.9682C10.8361 20.982 10.823 20.9958 10.81 21.0096C10.7969 21.0234 10.7839 21.0372 10.7709 21.0509C10.7578 21.0647 10.7448 21.0784 10.7319 21.0922C10.7189 21.1059 10.7059 21.1196 10.693 21.1333C10.6801 21.147 10.6671 21.1606 10.6542 21.1743C10.6413 21.1879 10.6284 21.2015 10.6156 21.2151C10.6027 21.2287 10.5898 21.2423 10.577 21.2559C10.5642 21.2695 10.5514 21.283 10.5386 21.2965C10.5258 21.3101 10.513 21.3236 10.5003 21.3371C10.4875 21.3505 10.4748 21.364 10.462 21.3775C10.4493 21.3909 10.4366 21.4043 10.4239 21.4177C10.4113 21.4312 10.3986 21.4445 10.386 21.4579C10.3733 21.4713 10.3607 21.4846 10.3481 21.4979C10.3355 21.5113 10.3229 21.5246 10.3103 21.5379C10.2978 21.5511 10.2852 21.5644 10.2727 21.5777C10.2602 21.5909 10.2477 21.6041 10.2352 21.6173C10.2227 21.6305 10.2102 21.6437 10.1978 21.6569C10.1853 21.67 10.1729 21.6832 10.1605 21.6963C10.1481 21.7094 10.1357 21.7225 10.1233 21.7356C10.111 21.7487 10.0986 21.7617 10.0863 21.7748C10.074 21.7878 10.0616 21.8008 10.0494 21.8138C10.0371 21.8268 10.0248 21.8398 10.0125 21.8527C10.0003 21.8657 9.98807 21.8786 9.97586 21.8915C9.96366 21.9044 9.95147 21.9173 9.9393 21.9302C9.92714 21.943 9.91499 21.9559 9.90286 21.9687C9.89074 21.9815 9.87863 21.9943 9.86655 22.0071C9.85446 22.0199 9.8424 22.0326 9.83036 22.0454C9.81831 22.0581 9.80629 22.0708 9.79429 22.0835C9.78229 22.0962 9.77031 22.1089 9.75835 22.1215C9.74639 22.1341 9.73445 22.1468 9.72254 22.1594C9.71062 22.172 9.69872 22.1845 9.68685 22.1971C9.67497 22.2097 9.66312 22.2222 9.65129 22.2347C9.63946 22.2472 9.62765 22.2597 9.61586 22.2722C9.60407 22.2846 9.5923 22.2971 9.58055 22.3095C9.56881 22.3219 9.55708 22.3343 9.54538 22.3467C9.53368 22.359 9.522 22.3714 9.51034 22.3837C9.49868 22.3961 9.48704 22.4084 9.47543 22.4206C9.46381 22.4329 9.45222 22.4452 9.44065 22.4574C9.42908 22.4696 9.41753 22.4819 9.406 22.494C9.39447 22.5062 9.38297 22.5184 9.37148 22.5305C9.36 22.5427 9.34854 22.5548 9.3371 22.5669C9.32567 22.579 9.31425 22.5911 9.30286 22.6031C9.29146 22.6151 9.28009 22.6272 9.26874 22.6392C9.2574 22.6512 9.24607 22.6631 9.23477 22.6751C9.22347 22.687 9.21219 22.699 9.20093 22.7109C9.18967 22.7228 9.17844 22.7347 9.16723 22.7465C9.15602 22.7584 9.14483 22.7702 9.13366 22.782C9.1225 22.7938 9.11135 22.8056 9.10024 22.8173C9.08912 22.8291 9.07802 22.8408 9.06695 22.8525C9.05588 22.8642 9.04483 22.8759 9.0338 22.8876C9.02277 22.8992 9.01177 22.9109 9.00079 22.9225C8.98981 22.9341 8.97886 22.9457 8.96793 22.9572C8.957 22.9688 8.94609 22.9803 8.9352 22.9918C8.92432 23.0033 8.91346 23.0148 8.90262 23.0263C8.89178 23.0377 8.88097 23.0492 8.87018 23.0606C8.85939 23.072 8.84863 23.0834 8.83789 23.0947C8.82715 23.1061 8.81643 23.1174 8.80574 23.1287C8.79504 23.14 8.78438 23.1513 8.77373 23.1626C8.76309 23.1738 8.75247 23.185 8.74187 23.1962C8.73128 23.2074 8.72071 23.2186 8.71016 23.2298C8.69961 23.2409 8.68909 23.2521 8.67859 23.2632C8.6681 23.2743 8.65762 23.2853 8.64717 23.2964C8.63673 23.3074 8.6263 23.3184 8.6159 23.3294C8.60551 23.3404 8.59513 23.3514 8.58478 23.3623C8.57444 23.3733 8.56411 23.3842 8.55381 23.3951C8.54352 23.406 8.53324 23.4168 8.52299 23.4277C8.51275 23.4385 8.50252 23.4493 8.49233 23.4601C8.48213 23.4709 8.47195 23.4816 8.46181 23.4924C8.45166 23.5031 8.44154 23.5138 8.43144 23.5245C8.42135 23.5351 8.41128 23.5458 8.40123 23.5564C8.39119 23.567 8.38117 23.5776 8.37117 23.5882C8.36118 23.5988 8.35121 23.6093 8.34127 23.6198C8.33133 23.6303 8.32141 23.6408 8.31152 23.6513C8.30163 23.6617 8.29177 23.6721 8.28193 23.6825C8.2721 23.693 8.26228 23.7033 8.2525 23.7137C8.24271 23.724 8.23295 23.7343 8.22322 23.7446C8.21349 23.7549 8.20378 23.7652 8.1941 23.7754C8.18442 23.7857 8.17477 23.7959 8.16514 23.806C8.15551 23.8162 8.14591 23.8264 8.13634 23.8365C8.12676 23.8466 8.11722 23.8567 8.1077 23.8668C8.09817 23.8768 8.08868 23.8869 8.07921 23.8969C8.06975 23.9069 8.06031 23.9169 8.05089 23.9268C8.04148 23.9368 8.03209 23.9467 8.02274 23.9566C8.01338 23.9665 8.00405 23.9764 7.99474 23.9862C7.98544 23.996 7.97616 24.0059 7.96691 24.0156C7.95766 24.0254 7.94844 24.0352 7.93924 24.0449C7.93005 24.0546 7.92088 24.0643 7.91174 24.074C7.9026 24.0836 7.89348 24.0933 7.8844 24.1029C7.87531 24.1125 7.86626 24.1221 7.85723 24.1316C7.8482 24.1411 7.8392 24.1507 7.83022 24.1602C7.82125 24.1696 7.8123 24.1791 7.80338 24.1885C7.79447 24.198 7.78558 24.2074 7.77671 24.2167C7.76785 24.2261 7.75902 24.2354 7.75021 24.2448C7.74141 24.2541 7.73263 24.2633 7.72388 24.2726C7.71513 24.2818 7.70641 24.2911 7.69772 24.3003C7.68903 24.3094 7.68036 24.3186 7.67173 24.3277C7.66309 24.3369 7.65449 24.346 7.64591 24.355C7.63733 24.3641 7.62878 24.3731 7.62026 24.3822C7.61174 24.3912 7.60325 24.4001 7.59479 24.4091C7.58632 24.418 7.57789 24.427 7.56949 24.4358C7.56108 24.4447 7.5527 24.4536 7.54436 24.4624C7.53601 24.4712 7.52769 24.48 7.51941 24.4888C7.51112 24.4976 7.50286 24.5063 7.49463 24.515C7.4864 24.5237 7.4782 24.5324 7.47003 24.541C7.46186 24.5496 7.45372 24.5582 7.4456 24.5668C7.43749 24.5754 7.42941 24.5839 7.42136 24.5925C7.41331 24.601 7.40528 24.6095 7.39729 24.6179C7.3893 24.6264 7.38133 24.6348 7.3734 24.6432C7.36547 24.6516 7.35756 24.6599 7.34969 24.6682C7.34182 24.6766 7.33397 24.6849 7.32616 24.6931C7.31835 24.7014 7.31056 24.7096 7.30281 24.7178C7.29506 24.726 7.28734 24.7342 7.27964 24.7423C7.27195 24.7504 7.26429 24.7585 7.25666 24.7666C7.24903 24.7747 7.24143 24.7827 7.23386 24.7907C7.22629 24.7987 7.21875 24.8067 7.21124 24.8146C7.20373 24.8226 7.19625 24.8305 7.1888 24.8383C7.18136 24.8462 7.17394 24.8541 7.16655 24.8619C7.15917 24.8697 7.15181 24.8775 7.14449 24.8852C7.13717 24.8929 7.12987 24.9007 7.12261 24.9083C7.11535 24.916 7.10812 24.9237 7.10092 24.9313C7.09372 24.9389 7.08655 24.9465 7.07942 24.954C7.07228 24.9615 7.06518 24.9691 7.0581 24.9765C7.05103 24.984 7.04399 24.9915 7.03698 24.9989C7.02996 25.0063 7.02299 25.0137 7.01604 25.021C7.00909 25.0284 7.00218 25.0357 6.99529 25.0429C6.98841 25.0502 6.98156 25.0575 6.97474 25.0647C6.96792 25.0719 6.96113 25.0791 6.95437 25.0862C6.94762 25.0934 6.94089 25.1005 6.9342 25.1075C6.92751 25.1146 6.92085 25.1217 6.91422 25.1287C6.9076 25.1357 6.901 25.1426 6.89444 25.1496C6.88788 25.1565 6.88135 25.1634 6.87485 25.1703C6.86835 25.1772 6.86189 25.184 6.85545 25.1908C6.84902 25.1976 6.84262 25.2044 6.83625 25.2111C6.82989 25.2178 6.82355 25.2245 6.81725 25.2312C6.81095 25.2379 6.80468 25.2445 6.79844 25.2511C6.79221 25.2577 6.786 25.2642 6.77983 25.2708C6.77366 25.2773 6.76753 25.2838 6.76142 25.2902C6.75532 25.2967 6.74925 25.3031 6.74321 25.3095C6.73718 25.3159 6.73117 25.3222 6.7252 25.3285C6.71923 25.3348 6.71329 25.3411 6.70739 25.3474C6.70149 25.3536 6.69562 25.3598 6.68978 25.366C6.68394 25.3721 6.67814 25.3783 6.67237 25.3844C6.6666 25.3905 6.66087 25.3965 6.65517 25.4026C6.64946 25.4086 6.6438 25.4146 6.63816 25.4205C6.63253 25.4265 6.62693 25.4324 6.62136 25.4383C6.6158 25.4442 6.61027 25.45 6.60477 25.4559C6.59927 25.4617 6.59381 25.4674 6.58838 25.4732C6.58295 25.4789 6.57756 25.4846 6.5722 25.4903C6.56684 25.496 6.56151 25.5016 6.55622 25.5072C6.55093 25.5128 6.54567 25.5183 6.54045 25.5239C6.53523 25.5294 6.53004 25.5349 6.52489 25.5403C6.51973 25.5458 6.51462 25.5512 6.50953 25.5566C6.50445 25.5619 6.4994 25.5673 6.49439 25.5726C6.48937 25.5779 6.4844 25.5831 6.47945 25.5884C6.47451 25.5936 6.4696 25.5988 6.46473 25.6039C6.45986 25.6091 6.45502 25.6142 6.45022 25.6193C6.44541 25.6243 6.44065 25.6294 6.43591 25.6344C6.43118 25.6394 6.42649 25.6444 6.42183 25.6493C6.41716 25.6542 6.41254 25.6591 6.40795 25.664C6.40336 25.6688 6.39881 25.6736 6.39429 25.6784C6.38977 25.6832 6.38529 25.6879 6.38084 25.6926C6.37639 25.6973 6.37198 25.702 6.36761 25.7066C6.36323 25.7112 6.3589 25.7158 6.35459 25.7204C6.35029 25.7249 6.34602 25.7294 6.34179 25.7339C6.33756 25.7384 6.33337 25.7428 6.32921 25.7472C6.32505 25.7516 6.32093 25.756 6.31685 25.7603C6.31276 25.7646 6.30871 25.7689 6.3047 25.7731C6.30069 25.7774 6.29671 25.7816 6.29277 25.7857C6.28884 25.7899 6.28493 25.794 6.28107 25.7981C6.2772 25.8022 6.27337 25.8062 6.26958 25.8103C6.26579 25.8143 6.26204 25.8182 6.25832 25.8222C6.2546 25.8261 6.25092 25.83 6.24727 25.8338C6.24363 25.8377 6.24002 25.8415 6.23645 25.8453C6.23289 25.8491 6.22935 25.8528 6.22586 25.8565C6.22236 25.8602 6.21891 25.8638 6.21549 25.8675C6.21206 25.8711 6.20868 25.8747 6.20534 25.8782C6.20199 25.8817 6.19868 25.8852 6.19541 25.8887C6.19214 25.8921 6.18891 25.8956 6.18572 25.8989C6.18252 25.9023 6.17937 25.9056 6.17625 25.9089C6.17313 25.9122 6.17005 25.9155 6.167 25.9187C6.16396 25.9219 6.16096 25.9251 6.15799 25.9282C6.15502 25.9314 6.15209 25.9345 6.1492 25.9375C6.14631 25.9406 6.14346 25.9436 6.14065 25.9466C6.13783 25.9496 6.13506 25.9525 6.13232 25.9554C6.12958 25.9583 6.12688 25.9611 6.12422 25.9639C6.12156 25.9668 6.11894 25.9695 6.11636 25.9723C6.11378 25.975 6.11123 25.9777 6.10873 25.9803C6.10622 25.983 6.10376 25.9856 6.10133 25.9882C6.0989 25.9907 6.09651 25.9933 6.09416 25.9957C6.09181 25.9982 6.0895 26.0007 6.08723 26.0031C6.08496 26.0055 6.08273 26.0078 6.08053 26.0101C6.07834 26.0125 6.07618 26.0147 6.07407 26.017C6.07196 26.0192 6.06988 26.0214 6.06784 26.0236C6.06581 26.0257 6.06381 26.0278 6.06185 26.0299C6.0599 26.032 6.05798 26.034 6.0561 26.036C6.05423 26.038 6.05239 26.0399 6.05059 26.0418L7.11347 27.0471Z" fill="white"/>
<path d="M14.9965 5.1318L14.265 5.13188L14.2652 6.59485L14.9967 6.59476L14.9965 5.1318ZM26.1475 6.59347C26.5514 6.59343 26.8789 6.26589 26.8788 5.86191C26.8788 5.45792 26.5513 5.13046 26.1473 5.13051L26.1475 6.59347ZM14.9967 6.59476L26.1475 6.59347L26.1473 5.13051L14.9965 5.1318L14.9967 6.59476Z" fill="white"/>
</svg>
