<svg width="26" height="24" viewBox="0 0 26 24" fill="none" xmlns="http://www.w3.org/2000/svg">
<path d="M4.66732 20C4.0944 20 3.60395 19.8042 3.19596 19.4125C2.78798 19.0208 2.58398 18.55 2.58398 18V6C2.58398 5.45 2.78798 4.97917 3.19596 4.5875C3.60395 4.19583 4.0944 4 4.66732 4H21.334C21.9069 4 22.3974 4.19583 22.8053 4.5875C23.2133 4.97917 23.4173 5.45 23.4173 6V18C23.4173 18.55 23.2133 19.0208 22.8053 19.4125C22.3974 19.8042 21.9069 20 21.334 20H4.66732ZM13.0007 13L4.66732 8V18H21.334V8L13.0007 13ZM13.0007 11L21.334 6H4.66732L13.0007 11ZM4.66732 8V6V18V8Z" fill="white"/>
</svg>
