<svg width="145" height="145" viewBox="0 0 145 145" fill="none" xmlns="http://www.w3.org/2000/svg">
<circle cx="72.5" cy="72.5" r="72" fill="white" stroke="white"/>
<circle cx="72.5" cy="20.5" r="4.5" fill="black"/>
<path d="M39.1449 77V67.5455H42.3395C43.0812 67.5455 43.6875 67.6793 44.1584 67.9471C44.6323 68.2118 44.9832 68.5703 45.2109 69.0227C45.4387 69.4751 45.5526 69.9799 45.5526 70.5369C45.5526 71.094 45.4387 71.6003 45.2109 72.0558C44.9863 72.5112 44.6385 72.8744 44.1676 73.1452C43.6967 73.413 43.0935 73.5469 42.358 73.5469H40.0682V72.5312H42.321C42.8288 72.5312 43.2366 72.4435 43.5444 72.2681C43.8522 72.0927 44.0753 71.8557 44.2138 71.5572C44.3554 71.2556 44.4261 70.9155 44.4261 70.5369C44.4261 70.1584 44.3554 69.8198 44.2138 69.5213C44.0753 69.2228 43.8506 68.9889 43.5398 68.8196C43.2289 68.6473 42.8165 68.5611 42.3026 68.5611H40.2898V77H39.1449ZM47.5998 77H46.3995L49.8711 67.5455H51.0529L54.5245 77H53.3242L50.4989 69.0412H50.4251L47.5998 77ZM48.043 73.3068H52.881V74.3224H48.043V73.3068ZM62.7959 70.5C62.6943 70.1892 62.5604 69.9106 62.3943 69.6644C62.2311 69.4151 62.0357 69.2028 61.808 69.0273C61.5833 68.8519 61.3278 68.718 61.0416 68.6257C60.7554 68.5334 60.4415 68.4872 60.0999 68.4872C59.5397 68.4872 59.0304 68.6319 58.5718 68.9212C58.1132 69.2105 57.7485 69.6367 57.4777 70.1999C57.2069 70.7631 57.0715 71.4541 57.0715 72.2727C57.0715 73.0914 57.2084 73.7823 57.4823 74.3455C57.7562 74.9087 58.1271 75.335 58.5949 75.6243C59.0627 75.9136 59.589 76.0582 60.1737 76.0582C60.7154 76.0582 61.1924 75.9428 61.6048 75.712C62.0203 75.4781 62.3435 75.1488 62.5743 74.7241C62.8082 74.2963 62.9251 73.7931 62.9251 73.2145L63.276 73.2884H60.4322V72.2727H64.0331V73.2884C64.0331 74.067 63.8669 74.7441 63.5345 75.3196C63.2052 75.8951 62.7497 76.3414 62.168 76.6584C61.5894 76.9723 60.9247 77.1293 60.1737 77.1293C59.3366 77.1293 58.601 76.9323 57.967 76.5384C57.3361 76.1444 56.8437 75.5843 56.4898 74.858C56.1389 74.1316 55.9635 73.2699 55.9635 72.2727C55.9635 71.5249 56.0635 70.8524 56.2636 70.2553C56.4667 69.6552 56.7529 69.1443 57.1222 68.7227C57.4916 68.301 57.9286 67.9779 58.4333 67.7532C58.938 67.5285 59.4936 67.4162 60.0999 67.4162C60.5984 67.4162 61.0632 67.4916 61.494 67.6424C61.928 67.7901 62.3142 68.0009 62.6528 68.2749C62.9944 68.5457 63.2791 68.8704 63.5068 69.2489C63.7346 69.6244 63.8915 70.0414 63.9777 70.5H62.7959ZM66.7739 77V67.5455H72.4799V68.5611H67.9188V71.7557H72.1845V72.7713H67.9188V75.9844H72.5538V77H66.7739ZM79.2427 68.5611V67.5455H86.3336V68.5611H83.3606V77H82.2157V68.5611H79.2427ZM96.4643 72.2727C96.4643 73.2699 96.2842 74.1316 95.9241 74.858C95.5641 75.5843 95.0701 76.1444 94.4423 76.5384C93.8144 76.9323 93.0973 77.1293 92.291 77.1293C91.4846 77.1293 90.7675 76.9323 90.1397 76.5384C89.5119 76.1444 89.0179 75.5843 88.6578 74.858C88.2977 74.1316 88.1177 73.2699 88.1177 72.2727C88.1177 71.2756 88.2977 70.4138 88.6578 69.6875C89.0179 68.9612 89.5119 68.401 90.1397 68.0071C90.7675 67.6132 91.4846 67.4162 92.291 67.4162C93.0973 67.4162 93.8144 67.6132 94.4423 68.0071C95.0701 68.401 95.5641 68.9612 95.9241 69.6875C96.2842 70.4138 96.4643 71.2756 96.4643 72.2727ZM95.3563 72.2727C95.3563 71.4541 95.2194 70.7631 94.9454 70.1999C94.6746 69.6367 94.3068 69.2105 93.8421 68.9212C93.3805 68.6319 92.8634 68.4872 92.291 68.4872C91.7185 68.4872 91.1999 68.6319 90.7352 68.9212C90.2736 69.2105 89.9058 69.6367 89.6319 70.1999C89.361 70.7631 89.2256 71.4541 89.2256 72.2727C89.2256 73.0914 89.361 73.7823 89.6319 74.3455C89.9058 74.9087 90.2736 75.335 90.7352 75.6243C91.1999 75.9136 91.7185 76.0582 92.291 76.0582C92.8634 76.0582 93.3805 75.9136 93.8421 75.6243C94.3068 75.335 94.6746 74.9087 94.9454 74.3455C95.2194 73.7823 95.3563 73.0914 95.3563 72.2727ZM99.1693 77V67.5455H102.364C103.106 67.5455 103.712 67.6793 104.183 67.9471C104.657 68.2118 105.008 68.5703 105.235 69.0227C105.463 69.4751 105.577 69.9799 105.577 70.5369C105.577 71.094 105.463 71.6003 105.235 72.0558C105.011 72.5112 104.663 72.8744 104.192 73.1452C103.721 73.413 103.118 73.5469 102.382 73.5469H100.093V72.5312H102.345C102.853 72.5312 103.261 72.4435 103.569 72.2681C103.877 72.0927 104.1 71.8557 104.238 71.5572C104.38 71.2556 104.451 70.9155 104.451 70.5369C104.451 70.1584 104.38 69.8198 104.238 69.5213C104.1 69.2228 103.875 68.9889 103.564 68.8196C103.253 68.6473 102.841 68.5611 102.327 68.5611H100.314V77H99.1693Z" fill="black"/>
</svg>
